<svg width="1647" height="1135" viewBox="0 0 1647 1135" fill="none" xmlns="http://www.w3.org/2000/svg">
<path d="M1277.44 212.382C1270.78 212.382 1264.31 211.431 1258.03 209.528C1251.94 207.624 1246.42 204.865 1241.48 201.249C1236.53 197.443 1232.63 192.781 1229.77 187.262C1226.92 181.552 1225.49 174.892 1225.49 167.279C1225.49 157.574 1227.39 149.676 1231.2 143.586C1235.01 137.306 1240.14 132.549 1246.61 129.313C1253.28 126.078 1260.79 123.89 1269.17 122.748C1277.54 121.416 1286.29 120.749 1295.43 120.749H1324.83C1324.83 114.089 1323.78 108.38 1321.69 103.622C1319.6 98.6739 1316.27 94.7726 1311.7 91.918C1307.32 89.0634 1301.61 87.6361 1294.57 87.6361C1290 87.6361 1285.72 88.2071 1281.73 89.3489C1277.92 90.3004 1274.59 91.918 1271.73 94.2017C1269.07 96.2951 1267.17 99.0545 1266.03 102.48H1230.34C1231.68 94.6775 1234.34 88.0168 1238.34 82.4979C1242.52 76.7887 1247.57 72.1262 1253.47 68.5103C1259.56 64.8945 1266.22 62.2302 1273.45 60.5174C1280.68 58.6144 1288.01 57.6628 1295.43 57.6628C1310.08 57.6628 1321.98 60.5174 1331.11 66.2267C1340.44 71.9358 1347.29 80.119 1351.66 90.7762C1356.04 101.433 1358.23 114.279 1358.23 129.313V210.384H1327.4L1326.54 192.115C1322.36 197.443 1317.5 201.63 1311.98 204.675C1306.66 207.529 1301.04 209.528 1295.14 210.669C1289.24 211.811 1283.34 212.382 1277.44 212.382ZM1285.44 184.122C1293.24 184.122 1300.09 182.694 1305.99 179.84C1311.89 176.985 1316.55 172.989 1319.98 167.85C1323.4 162.712 1325.12 156.717 1325.12 149.866V145.299H1298C1293.05 145.299 1288.29 145.489 1283.72 145.87C1279.16 146.06 1275.07 146.822 1271.45 148.154C1268.02 149.295 1265.26 151.103 1263.17 153.577C1261.08 156.051 1260.03 159.572 1260.03 164.139C1260.03 168.516 1261.17 172.227 1263.46 175.272C1265.74 178.127 1268.78 180.315 1272.59 181.838C1276.59 183.36 1280.87 184.122 1285.44 184.122Z" fill="black"/>
<path d="M1081.34 210.384V59.9465H1116.17V120.179H1140.15L1179.25 59.9465H1218.65L1170.41 131.026L1220.36 210.384H1180.11L1142.72 151.008H1116.17V210.384H1081.34Z" fill="black"/>
<path d="M986.369 212.382C976.092 212.382 966.957 210.86 958.965 207.815C950.972 204.77 944.025 200.583 938.126 195.255C932.417 189.736 927.659 183.36 923.853 176.129C920.047 168.707 917.192 160.619 915.289 151.865C913.386 143.111 912.435 133.881 912.435 124.175C912.435 109.712 913.005 96.4855 914.147 84.4962C915.479 72.3165 917.953 61.5642 921.569 52.2392C925.375 42.9142 930.989 35.0164 938.411 28.546C946.024 22.0756 955.92 17.2228 968.099 13.9875C975.712 11.7039 983.514 9.9911 991.507 8.84927C999.5 7.51711 1007.97 6.28012 1016.91 5.13828C1023.38 4.37705 1028.62 3.71098 1032.61 3.14007C1036.8 2.56914 1040.32 1.99822 1043.18 1.4273C1046.22 0.856387 1048.98 0.38062 1051.45 0V34.5407C1049.55 35.3019 1047.46 35.8728 1045.17 36.2534C1043.08 36.634 1040.8 37.0147 1038.32 37.3953C1035.85 37.5856 1033.37 37.7759 1030.9 37.9662C1028.43 38.1565 1025.95 38.442 1023.48 38.8226C1021.19 39.0129 1018.91 39.2032 1016.63 39.3935C1008.82 40.1547 1000.93 40.9159 992.934 41.6772C984.941 42.4384 977.519 44.056 970.668 46.53C963.817 49.004 958.203 53.2859 953.826 59.3757C951.923 61.8497 950.21 64.9897 948.688 68.7959C947.356 72.602 946.309 76.5984 945.548 80.7852C944.787 84.7816 944.406 88.8732 944.406 93.06C948.593 86.9701 953.541 82.2125 959.25 78.787C964.959 75.3614 970.954 72.8874 977.234 71.365C983.704 69.8425 989.699 69.0813 995.218 69.0813C1008.92 69.0813 1020.53 72.1262 1030.04 78.216C1039.56 84.1156 1046.79 92.2987 1051.74 102.766C1056.69 113.042 1059.16 124.936 1059.16 138.448C1059.16 152.911 1056.21 165.757 1050.31 176.985C1044.41 188.023 1036.04 196.682 1025.19 202.962C1014.34 209.242 1001.4 212.382 986.369 212.382ZM986.654 181.553C995.028 181.553 1001.97 179.649 1007.49 175.843C1013.2 171.847 1017.48 166.709 1020.34 160.429C1023.19 154.148 1024.62 147.393 1024.62 140.161C1024.62 132.929 1023.19 126.364 1020.34 120.464C1017.48 114.565 1013.3 109.807 1007.78 106.191C1002.26 102.575 995.408 100.767 987.225 100.767C979.232 100.767 972.381 102.67 966.672 106.477C960.963 110.092 956.586 114.945 953.541 121.035C950.496 126.935 948.973 133.405 948.973 140.446C948.973 147.488 950.306 154.148 952.97 160.429C955.825 166.709 960.011 171.847 965.53 175.843C971.049 179.649 978.09 181.553 986.654 181.553Z" fill="black"/>
<path d="M818.391 212.382C802.976 212.382 789.654 209.242 778.426 202.962C767.389 196.682 758.825 187.737 752.735 176.129C746.835 164.52 743.886 150.913 743.886 135.308C743.886 119.513 746.835 105.906 752.735 94.4872C758.825 82.8785 767.389 73.8389 778.426 67.3685C789.654 60.898 802.976 57.6628 818.391 57.6628C833.615 57.6628 846.746 60.898 857.784 67.3685C868.822 73.8389 877.291 82.9736 883.19 94.7726C889.09 106.381 892.039 120.083 892.039 135.879C892.039 151.294 889.09 164.805 883.19 176.414C877.481 187.833 869.107 196.682 858.07 202.962C847.032 209.242 833.806 212.382 818.391 212.382ZM818.105 180.696C827.621 180.696 835.233 178.603 840.942 174.416C846.842 170.229 851.124 164.71 853.788 157.859C856.452 151.008 857.784 143.586 857.784 135.593C857.784 127.601 856.452 120.083 853.788 113.042C851.124 106.001 846.842 100.387 840.942 96.1999C835.233 91.8229 827.621 89.6344 818.105 89.6344C808.59 89.6344 800.883 91.8229 794.983 96.1999C789.084 100.387 784.802 106.001 782.137 113.042C779.473 120.083 778.141 127.601 778.141 135.593C778.141 143.777 779.473 151.294 782.137 158.145C784.802 164.996 789.084 170.515 794.983 174.701C800.883 178.698 808.59 180.696 818.105 180.696Z" fill="black"/>
<path d="M580.237 265.763V59.9465H612.78L614.493 80.4996C620.392 72.5068 627.624 66.7024 636.187 63.0866C644.751 59.4708 653.791 57.6628 663.306 57.6628C677.769 57.6628 689.854 61.0884 699.56 67.9394C709.265 74.7904 716.497 84.1155 721.255 95.9145C726.012 107.523 728.391 120.654 728.391 135.308C728.391 149.962 725.917 163.093 720.969 174.701C716.211 186.31 708.789 195.54 698.703 202.391C688.807 209.052 676.057 212.382 660.452 212.382C653.22 212.382 646.749 211.621 641.04 210.098C635.331 208.386 630.288 206.197 625.911 203.533C621.724 200.678 618.108 197.633 615.063 194.398V265.763H580.237ZM655.599 180.982C665.304 180.982 672.917 178.888 678.436 174.701C683.954 170.324 687.951 164.71 690.425 157.859C692.899 150.818 694.136 143.396 694.136 135.593C694.136 127.41 692.804 119.798 690.139 112.757C687.665 105.715 683.574 100.006 677.865 95.629C672.155 91.252 664.543 89.0634 655.028 89.0634C646.274 89.0634 638.852 91.252 632.762 95.629C626.862 99.8158 622.39 105.43 619.345 112.471C616.3 119.513 614.778 127.125 614.778 135.308C614.778 143.681 616.205 151.389 619.06 158.43C621.914 165.281 626.387 170.8 632.477 174.987C638.566 178.983 646.274 180.982 655.599 180.982Z" fill="black"/>
<path d="M484.414 212.382C468.999 212.382 455.678 209.242 444.45 202.962C433.412 196.682 424.848 187.737 418.758 176.129C412.859 164.52 409.909 150.913 409.909 135.308C409.909 119.513 412.859 105.906 418.758 94.4872C424.848 82.8785 433.412 73.8389 444.45 67.3685C455.678 60.898 468.999 57.6628 484.414 57.6628C499.639 57.6628 512.77 60.898 523.808 67.3685C534.846 73.8389 543.314 82.9736 549.214 94.7726C555.113 106.381 558.063 120.083 558.063 135.879C558.063 151.294 555.113 164.805 549.214 176.414C543.504 187.833 535.131 196.682 524.093 202.962C513.055 209.242 499.829 212.382 484.414 212.382ZM484.129 180.696C493.644 180.696 501.256 178.603 506.966 174.416C512.865 170.229 517.147 164.71 519.811 157.859C522.476 151.008 523.808 143.586 523.808 135.593C523.808 127.601 522.476 120.083 519.811 113.042C517.147 106.001 512.865 100.387 506.966 96.1999C501.256 91.8229 493.644 89.6344 484.129 89.6344C474.613 89.6344 466.906 91.8229 461.007 96.1999C455.107 100.387 450.825 106.001 448.161 113.042C445.497 120.083 444.164 127.601 444.164 135.593C444.164 143.777 445.497 151.294 448.161 158.145C450.825 164.996 455.107 170.515 461.007 174.701C466.906 178.698 474.613 180.696 484.129 180.696Z" fill="black"/>
<path d="M245 210.384V8.56372H280.683V95.3436H309.799L366.606 8.56372H407.141L339.773 107.333L407.427 210.384H365.75L311.512 127.886H280.683V210.384H245Z" fill="black"/>
<g filter="url(#filter0_d_748_5891)">
<path d="M175 293.5L1428 299.688V914H175V293.5Z" fill="#FFC48D"/>
<path d="M268 848.5V405.344C268 400.234 268 395.173 267.553 391.211C266.877 385.215 261.122 381.068 256.903 376.754L175 293L175 901.995C175.027 911.36 181.864 916.775 186.778 911.325C211.743 883.697 268 889.69 268 848.5Z" fill="#FFC48D"/>
<path d="M268 848.5V405.344C268 400.234 268 395.173 267.553 391.211C266.877 385.215 261.122 381.068 256.903 376.754L175 293L175 901.995C175.027 911.36 181.864 916.775 186.778 911.325C211.743 883.697 268 889.69 268 848.5Z" fill="black" fill-opacity="0.3"/>
<path d="M1346.16 865.982C1339.25 861.969 1335 854.587 1335 846.596C1335 832.487 1335 810.912 1335 803.624V405.344C1335 394.306 1338.4 383.931 1344.14 377.412L1428 293V913.5L1346.16 865.982Z" fill="#FFC48D"/>
<path d="M1346.16 865.982C1339.25 861.969 1335 854.587 1335 846.596C1335 832.487 1335 810.912 1335 803.624V405.344C1335 394.306 1338.4 383.931 1344.14 377.412L1428 293V913.5L1346.16 865.982Z" fill="black" fill-opacity="0.1"/>
<path d="M1344.19 387.918C1339.94 392.739 1333.97 395.5 1327.54 395.5C1049.59 395.497 554.605 395.331 271.817 390.09C268.582 390.03 265.467 389.303 262.864 387.381C239.714 370.296 175 293 175 293H1428L1344.19 387.918Z" fill="#FFD0A5"/>
<path d="M1344.19 387.918C1339.94 392.739 1333.97 395.5 1327.54 395.5C1049.59 395.497 554.605 395.331 271.817 390.09C268.582 390.03 265.467 389.303 262.864 387.381C239.714 370.296 175 293 175 293H1428L1344.19 387.918Z" fill="black" fill-opacity="0.3"/>
<path d="M1309.33 213.562C1292.82 202.441 1273.4 196.5 1253.5 196.5C980.389 196.5 614.704 196.5 330.596 196.5C327.217 196.5 323.935 197.252 321.002 198.93C291.821 215.628 175 293.5 175 293.5H1428L1309.33 213.562Z" fill="#FFD0A5"/>
<path d="M1309.33 213.562C1292.82 202.441 1273.4 196.5 1253.5 196.5C980.389 196.5 614.704 196.5 330.596 196.5C327.217 196.5 323.935 197.252 321.002 198.93C291.821 215.628 175 293.5 175 293.5H1428L1309.33 213.562Z" fill="#FFD0A5"/>
<path d="M260.823 850.014C264.819 846.77 269.809 845 274.956 845L1329.43 845C1334.03 845 1338.52 846.417 1342.29 849.058L1435 914H182L260.823 850.014Z" fill="#FFC48D"/>
<path d="M260.823 850.014C264.819 846.77 269.809 845 274.956 845L1329.43 845C1334.03 845 1338.52 846.417 1342.29 849.058L1435 914H182L260.823 850.014Z" fill="#BFBFBF" fill-opacity="0.2"/>
<path d="M293.235 977.956C307.848 985.861 324.193 990 340.807 990C612.244 990 944.445 990 1229.89 990C1233.27 990 1236.53 989.261 1239.63 987.926C1272.7 973.713 1428 914 1428 914H175L293.235 977.956Z" fill="#FFD0A5"/>
<path d="M293.235 977.956C307.848 985.861 324.193 990 340.807 990C612.244 990 944.445 990 1229.89 990C1233.27 990 1236.53 989.261 1239.63 987.926C1272.7 973.713 1428 914 1428 914H175L293.235 977.956Z" fill="#FFD0A5"/>
<path d="M293.235 977.956C307.848 985.861 324.193 990 340.807 990C612.244 990 944.445 990 1229.89 990C1233.27 990 1236.53 989.261 1239.63 987.926C1272.7 973.713 1428 914 1428 914H175L293.235 977.956Z" fill="black" fill-opacity="0.2"/>
<path d="M1516.75 849.541C1521.93 845.778 1525 839.787 1525 833.383C1525 701.399 1525 523.485 1525 383.809C1525 377.909 1522.63 372.336 1518.18 368.458C1495.3 348.49 1428 293 1428 293V914L1516.75 849.541Z" fill="#FFD0A5"/>
<path d="M1516.75 849.541C1521.93 845.778 1525 839.787 1525 833.383C1525 701.399 1525 523.485 1525 383.809C1525 377.909 1522.63 372.336 1518.18 368.458C1495.3 348.49 1428 293 1428 293V914L1516.75 849.541Z" fill="#FFD0A5"/>
<path d="M1516.75 849.541C1521.93 845.778 1525 839.787 1525 833.383C1525 701.399 1525 523.485 1525 383.809C1525 377.909 1522.63 372.336 1518.18 368.458C1495.3 348.49 1428 293 1428 293V914L1516.75 849.541Z" fill="black" fill-opacity="0.2"/>
<path d="M119.236 873.5C93.3304 854.685 78 824.621 78 792.605C78.0001 666.29 78 509.554 78 383.809C78 377.909 80.373 372.338 84.8277 368.471C107.725 348.592 175 293.5 175 293.5L175 914L119.236 873.5Z" fill="#FFD0A5"/>
<path d="M119.236 873.5C93.3304 854.685 78 824.621 78 792.605C78.0001 666.29 78 509.554 78 383.809C78 377.909 80.373 372.338 84.8277 368.471C107.725 348.592 175 293.5 175 293.5L175 914L119.236 873.5Z" fill="#FFD0A5"/>
<rect x="268" y="618" width="1067" height="11" fill="#626262" fill-opacity="0.5"/>
<g opacity="0.6">
<mask id="path-18-outside-1_748_5891" maskUnits="userSpaceOnUse" x="308" y="432" width="945" height="372" fill="black">
<rect fill="white" x="308" y="432" width="945" height="372"/>
<path d="M497.09 795V728H313.09V681L480.09 441.5H558.59V671.5H599.09V728H558.59V795H497.09ZM385.09 671.5H497.09V507L385.09 671.5ZM778.973 799C753.306 799 731.473 794.5 713.473 785.5C695.473 776.167 680.973 763.167 669.973 746.5C658.973 729.833 650.806 710.667 645.473 689C640.473 667.333 637.973 644 637.973 619C637.973 593.667 640.473 570 645.473 548C650.806 526 658.973 506.833 669.973 490.5C681.306 473.833 695.973 460.833 713.973 451.5C731.973 441.833 753.806 437 779.473 437C805.806 437 827.973 442 845.973 452C864.306 462 878.806 475.5 889.473 492.5C900.473 509.5 908.306 528.833 912.973 550.5C917.973 572.167 920.473 594.833 920.473 618.5C920.473 641.833 917.973 664.333 912.973 686C908.306 707.667 900.473 727 889.473 744C878.473 761 863.806 774.5 845.473 784.5C827.473 794.167 805.306 799 778.973 799ZM778.973 742C795.973 742 809.639 738 819.973 730C830.639 722 838.639 711.833 843.973 699.5C849.306 686.833 852.806 673.333 854.473 659C856.473 644.667 857.473 631.167 857.473 618.5C857.473 605.833 856.639 592.5 854.973 578.5C853.306 564.167 849.806 550.667 844.473 538C839.139 525.333 831.306 515 820.973 507C810.639 499 796.806 495 779.473 495C762.139 495 748.139 499 737.473 507C727.139 515 719.306 525.333 713.973 538C708.639 550.333 704.973 563.667 702.973 578C701.306 592.333 700.473 605.833 700.473 618.5C700.473 631.167 701.306 644.667 702.973 659C704.639 673 707.973 686.333 712.973 699C718.306 711.667 726.139 722 736.473 730C747.139 738 761.306 742 778.973 742ZM1145.53 795V728H961.527V681L1128.53 441.5H1207.03V671.5H1247.53V728H1207.03V795H1145.53ZM1033.53 671.5H1145.53V507L1033.53 671.5Z"/>
</mask>
<path d="M497.09 795H494.59V797.5H497.09V795ZM497.09 728H499.59V725.5H497.09V728ZM313.09 728H310.59V730.5H313.09V728ZM313.09 681L311.039 679.57L310.59 680.214V681H313.09ZM480.09 441.5V439H478.785L478.039 440.07L480.09 441.5ZM558.59 441.5H561.09V439H558.59V441.5ZM558.59 671.5H556.09V674H558.59V671.5ZM599.09 671.5H601.59V669H599.09V671.5ZM599.09 728V730.5H601.59V728H599.09ZM558.59 728V725.5H556.09V728H558.59ZM558.59 795V797.5H561.09V795H558.59ZM385.09 671.5L383.023 670.093L380.363 674H385.09V671.5ZM497.09 671.5V674H499.59V671.5H497.09ZM497.09 507H499.59V498.886L495.023 505.593L497.09 507ZM499.59 795V772.667H494.59V795H499.59ZM499.59 750.333V728H494.59V750.333H499.59ZM497.09 725.5H481.757V730.5H497.09V725.5ZM466.423 725.5H435.757V730.5H466.423V725.5ZM420.423 725.5H389.757V730.5H420.423V725.5ZM374.423 725.5H343.757V730.5H374.423V725.5ZM328.423 725.5H313.09V730.5H328.423V725.5ZM315.59 728V712.333H310.59V728H315.59ZM315.59 696.667V681H310.59V696.667H315.59ZM315.141 682.43L324.418 669.124L320.317 666.265L311.039 679.57L315.141 682.43ZM333.696 655.819L352.252 629.208L348.15 626.348L329.595 652.959L333.696 655.819ZM361.529 615.902L380.085 589.291L375.984 586.431L357.428 613.042L361.529 615.902ZM389.363 575.985L407.918 549.374L403.817 546.515L385.261 573.126L389.363 575.985ZM417.196 536.069L435.752 509.458L431.65 506.598L413.095 533.209L417.196 536.069ZM445.029 496.152L463.585 469.541L459.484 466.681L440.928 493.292L445.029 496.152ZM472.863 456.235L482.141 442.93L478.039 440.07L468.761 453.376L472.863 456.235ZM480.09 444H493.173V439H480.09V444ZM506.257 444H532.423V439H506.257V444ZM545.507 444H558.59V439H545.507V444ZM556.09 441.5V456.833H561.09V441.5H556.09ZM556.09 472.167V502.833H561.09V472.167H556.09ZM556.09 518.167V548.833H561.09V518.167H556.09ZM556.09 564.167V594.833H561.09V564.167H556.09ZM556.09 610.167V640.833H561.09V610.167H556.09ZM556.09 656.167V671.5H561.09V656.167H556.09ZM558.59 674H572.09V669H558.59V674ZM585.59 674H599.09V669H585.59V674ZM596.59 671.5V690.333H601.59V671.5H596.59ZM596.59 709.167V728H601.59V709.167H596.59ZM599.09 725.5H585.59V730.5H599.09V725.5ZM572.09 725.5H558.59V730.5H572.09V725.5ZM556.09 728V750.333H561.09V728H556.09ZM556.09 772.667V795H561.09V772.667H556.09ZM558.59 792.5H538.09V797.5H558.59V792.5ZM517.59 792.5H497.09V797.5H517.59V792.5ZM387.156 672.907L396.49 659.199L392.357 656.385L383.023 670.093L387.156 672.907ZM405.823 645.49L424.49 618.074L420.357 615.26L401.69 642.676L405.823 645.49ZM433.823 604.365L452.49 576.949L448.357 574.135L429.69 601.551L433.823 604.365ZM461.823 563.24L480.49 535.824L476.357 533.01L457.69 560.426L461.823 563.24ZM489.823 522.115L499.156 508.407L495.023 505.593L485.69 519.301L489.823 522.115ZM494.59 507V520.708H499.59V507H494.59ZM494.59 534.417V561.833H499.59V534.417H494.59ZM494.59 575.542V602.958H499.59V575.542H494.59ZM494.59 616.667V644.083H499.59V616.667H494.59ZM494.59 657.792V671.5H499.59V657.792H494.59ZM497.09 669H478.423V674H497.09V669ZM459.757 669H422.423V674H459.757V669ZM403.757 669H385.09V674H403.757V669ZM497.09 795H492.09V800H497.09V795ZM497.09 728H502.09V723H497.09V728ZM313.09 728H308.09V733H313.09V728ZM313.09 681L308.988 678.14L308.09 679.429V681H313.09ZM480.09 441.5V436.5H477.481L475.988 438.64L480.09 441.5ZM558.59 441.5H563.59V436.5H558.59V441.5ZM558.59 671.5H553.59V676.5H558.59V671.5ZM599.09 671.5H604.09V666.5H599.09V671.5ZM599.09 728V733H604.09V728H599.09ZM558.59 728V723H553.59V728H558.59ZM558.59 795V800H563.59V795H558.59ZM385.09 671.5L380.957 668.686L375.637 676.5H385.09V671.5ZM497.09 671.5V676.5H502.09V671.5H497.09ZM497.09 507H502.09V490.772L492.957 504.186L497.09 507ZM502.09 795V772.667H492.09V795H502.09ZM502.09 750.333V728H492.09V750.333H502.09ZM497.09 723H481.757V733H497.09V723ZM466.423 723H435.757V733H466.423V723ZM420.423 723H389.757V733H420.423V723ZM374.423 723H343.757V733H374.423V723ZM328.423 723H313.09V733H328.423V723ZM318.09 728V712.333H308.09V728H318.09ZM318.09 696.667V681H308.09V696.667H318.09ZM317.191 683.86L326.469 670.554L318.266 664.835L308.988 678.14L317.191 683.86ZM335.747 657.249L354.302 630.638L346.1 624.918L327.544 651.529L335.747 657.249ZM363.58 617.332L382.136 590.721L373.933 585.001L355.377 611.612L363.58 617.332ZM391.413 577.415L409.969 550.804L401.766 545.085L383.211 571.696L391.413 577.415ZM419.247 537.499L437.802 510.888L429.6 505.168L411.044 531.779L419.247 537.499ZM447.08 497.582L465.636 470.971L457.433 465.251L438.877 491.862L447.08 497.582ZM474.913 457.665L484.191 444.36L475.988 438.64L466.711 451.946L474.913 457.665ZM480.09 446.5H493.173V436.5H480.09V446.5ZM506.257 446.5H532.423V436.5H506.257V446.5ZM545.507 446.5H558.59V436.5H545.507V446.5ZM553.59 441.5V456.833H563.59V441.5H553.59ZM553.59 472.167V502.833H563.59V472.167H553.59ZM553.59 518.167V548.833H563.59V518.167H553.59ZM553.59 564.167V594.833H563.59V564.167H553.59ZM553.59 610.167V640.833H563.59V610.167H553.59ZM553.59 656.167V671.5H563.59V656.167H553.59ZM558.59 676.5H572.09V666.5H558.59V676.5ZM585.59 676.5H599.09V666.5H585.59V676.5ZM594.09 671.5V690.333H604.09V671.5H594.09ZM594.09 709.167V728H604.09V709.167H594.09ZM599.09 723H585.59V733H599.09V723ZM572.09 723H558.59V733H572.09V723ZM553.59 728V750.333H563.59V728H553.59ZM553.59 772.667V795H563.59V772.667H553.59ZM558.59 790H538.09V800H558.59V790ZM517.59 790H497.09V800H517.59V790ZM389.223 674.314L398.556 660.606L390.29 654.978L380.957 668.686L389.223 674.314ZM407.89 646.897L426.556 619.481L418.29 613.853L399.624 641.269L407.89 646.897ZM435.89 605.772L454.556 578.356L446.29 572.728L427.624 600.144L435.89 605.772ZM463.89 564.647L482.556 537.231L474.29 531.603L455.624 559.019L463.89 564.647ZM491.89 523.522L501.223 509.814L492.957 504.186L483.624 517.894L491.89 523.522ZM492.09 507V520.708H502.09V507H492.09ZM492.09 534.417V561.833H502.09V534.417H492.09ZM492.09 575.542V602.958H502.09V575.542H492.09ZM492.09 616.667V644.083H502.09V616.667H492.09ZM492.09 657.792V671.5H502.09V657.792H492.09ZM497.09 666.5H478.423V676.5H497.09V666.5ZM459.757 666.5H422.423V676.5H459.757V666.5ZM403.757 666.5H385.09V676.5H403.757V666.5ZM713.473 785.5L712.322 787.719L712.338 787.728L712.355 787.736L713.473 785.5ZM669.973 746.5L667.886 747.877L667.886 747.877L669.973 746.5ZM645.473 689L643.037 689.562L643.041 689.58L643.045 689.598L645.473 689ZM645.473 548L643.043 547.411L643.039 547.428L643.035 547.446L645.473 548ZM669.973 490.5L667.905 489.094L667.899 489.103L669.973 490.5ZM713.973 451.5L715.123 453.719L715.14 453.711L715.155 453.702L713.973 451.5ZM845.973 452L844.759 454.185L844.767 454.19L844.776 454.195L845.973 452ZM889.473 492.5L887.355 493.829L887.364 493.843L887.374 493.858L889.473 492.5ZM912.973 550.5L910.529 551.026L910.533 551.044L910.537 551.062L912.973 550.5ZM912.973 686L910.537 685.438L910.533 685.456L910.529 685.474L912.973 686ZM889.473 744L891.572 745.358L891.572 745.358L889.473 744ZM845.473 784.5L846.655 786.702L846.663 786.699L846.67 786.695L845.473 784.5ZM819.973 730L818.473 728L818.457 728.011L818.442 728.023L819.973 730ZM843.973 699.5L846.267 700.492L846.272 700.481L846.277 700.47L843.973 699.5ZM854.473 659L851.997 658.655L851.993 658.683L851.989 658.711L854.473 659ZM854.973 578.5L852.489 578.789L852.49 578.796L854.973 578.5ZM844.473 538L842.169 538.97L842.169 538.97L844.473 538ZM820.973 507L822.503 505.023L822.503 505.023L820.973 507ZM737.473 507L735.973 505L735.957 505.011L735.942 505.023L737.473 507ZM713.973 538L716.267 538.992L716.272 538.981L716.277 538.97L713.973 538ZM702.973 578L700.497 577.655L700.493 577.683L700.489 577.711L702.973 578ZM702.973 659L700.489 659.289L700.49 659.296L702.973 659ZM712.973 699L710.647 699.918L710.658 699.944L710.669 699.97L712.973 699ZM736.473 730L734.942 731.977L734.957 731.989L734.973 732L736.473 730ZM778.973 796.5C771.222 796.5 763.838 796.085 756.819 795.258L756.233 800.223C763.464 801.075 771.044 801.5 778.973 801.5V796.5ZM735.128 791.077C727.777 789.041 720.933 786.435 714.591 783.264L712.355 787.736C719.005 791.061 726.154 793.78 733.794 795.896L735.128 791.077ZM714.623 783.281C708.802 780.262 703.361 776.856 698.298 773.063L695.3 777.065C700.591 781.028 706.265 784.579 712.322 787.719L714.623 783.281ZM683.968 760.24C679.621 755.603 675.651 750.565 672.059 745.123L667.886 747.877C671.63 753.55 675.775 758.812 680.321 763.66L683.968 760.24ZM672.059 745.123C668.32 739.457 664.91 733.494 661.832 727.233L657.345 729.439C660.514 735.884 664.027 742.03 667.886 747.877L672.059 745.123ZM653.825 708.212C651.565 701.868 649.589 695.265 647.9 688.402L643.045 689.598C644.773 696.615 646.796 703.38 649.115 709.89L653.825 708.212ZM647.909 688.438C647.043 684.688 646.253 680.886 645.539 677.033L640.622 677.945C641.35 681.868 642.155 685.74 643.037 689.562L647.909 688.438ZM643.652 665.531C642.571 657.987 641.766 650.254 641.236 642.334L636.247 642.668C636.785 650.708 637.603 658.566 638.702 666.24L643.652 665.531ZM640.66 630.676C640.535 626.826 640.473 622.934 640.473 619H635.473C635.473 622.987 635.536 626.933 635.662 630.838L640.66 630.676ZM640.473 619C640.473 615.01 640.535 611.063 640.66 607.158L635.662 606.998C635.536 610.957 635.473 614.958 635.473 619H640.473ZM641.237 595.333C641.767 587.301 642.573 579.457 643.654 571.8L638.703 571.101C637.604 578.885 636.786 586.853 636.248 595.003L641.237 595.333ZM645.541 560.129C646.255 556.22 647.045 552.361 647.91 548.554L643.035 547.446C642.154 551.324 641.349 555.252 640.622 559.231L645.541 560.129ZM647.902 548.589C649.575 541.689 651.528 535.077 653.76 528.753L649.045 527.089C646.754 533.581 644.753 540.355 643.043 547.411L647.902 548.589ZM661.742 509.724C664.841 503.437 668.276 497.495 672.046 491.896L667.899 489.103C663.999 494.895 660.452 501.032 657.257 507.514L661.742 509.724ZM672.04 491.906C675.733 486.475 679.784 481.446 684.193 476.816L680.572 473.368C675.97 478.2 671.748 483.443 667.905 489.094L672.04 491.906ZM698.683 463.981C703.801 460.17 709.28 456.749 715.123 453.719L712.822 449.281C706.746 452.431 701.037 455.994 695.697 459.971L698.683 463.981ZM715.155 453.702C718.355 451.984 721.681 450.421 725.134 449.014L723.247 444.384C719.634 445.856 716.148 447.494 712.79 449.297L715.155 453.702ZM735.558 445.353C742.353 443.324 749.583 441.819 757.252 440.844L756.621 435.884C748.704 436.891 741.205 438.449 734.127 440.562L735.558 445.353ZM768.329 439.822C771.955 439.607 775.67 439.5 779.473 439.5V434.5C775.576 434.5 771.763 434.61 768.034 434.831L768.329 439.822ZM779.473 439.5C783.345 439.5 787.122 439.609 790.805 439.828L791.101 434.837C787.315 434.612 783.439 434.5 779.473 434.5V439.5ZM802.069 440.873C809.891 441.875 817.237 443.423 824.11 445.513L825.564 440.729C818.4 438.551 810.779 436.947 802.704 435.913L802.069 440.873ZM834.677 449.306C838.178 450.77 841.538 452.396 844.759 454.185L847.187 449.815C843.8 447.933 840.272 446.226 836.605 444.693L834.677 449.306ZM844.776 454.195C850.66 457.404 856.134 460.977 861.2 464.912L864.267 460.962C858.98 456.857 853.28 453.138 847.17 449.805L844.776 454.195ZM875.556 478.213C879.911 483.028 883.844 488.233 887.355 493.829L891.59 491.171C887.927 485.333 883.818 479.894 879.264 474.859L875.556 478.213ZM887.374 493.858C891.085 499.594 894.432 505.603 897.413 511.884L901.93 509.74C898.857 503.264 895.404 497.065 891.572 491.142L887.374 493.858ZM905.099 531.058C907.232 537.469 909.042 544.125 910.529 551.026L915.417 549.974C913.894 542.902 912.036 536.071 909.843 529.48L905.099 531.058ZM910.537 551.062C911.383 554.727 912.156 558.422 912.858 562.146L917.771 561.22C917.057 557.43 916.27 553.67 915.409 549.938L910.537 551.062ZM914.733 573.316C915.825 580.712 916.641 588.221 917.181 595.842L922.169 595.488C921.62 587.744 920.79 580.11 919.68 572.586L914.733 573.316ZM917.777 607.162C917.908 610.915 917.973 614.694 917.973 618.5H922.973C922.973 614.637 922.907 610.8 922.774 606.989L917.777 607.162ZM917.973 618.5C917.973 622.274 917.907 626.025 917.775 629.753L922.772 629.93C922.906 626.142 922.973 622.332 922.973 618.5H917.973ZM917.174 640.989C916.631 648.535 915.812 655.988 914.718 663.346L919.663 664.082C920.777 656.596 921.609 649.018 922.161 641.348L917.174 640.989ZM912.845 674.434C912.147 678.126 911.378 681.794 910.537 685.438L915.409 686.562C916.265 682.853 917.048 679.12 917.758 675.364L912.845 674.434ZM910.529 685.474C909.042 692.375 907.232 699.031 905.099 705.442L909.843 707.02C912.036 700.429 913.894 693.598 915.417 686.526L910.529 685.474ZM897.413 724.616C894.432 730.897 891.085 736.906 887.374 742.642L891.572 745.358C895.404 739.435 898.857 733.236 901.93 726.76L897.413 724.616ZM887.374 742.642C883.76 748.227 879.745 753.423 875.328 758.231L879.01 761.613C883.621 756.594 887.808 751.175 891.572 745.358L887.374 742.642ZM860.812 771.543C855.693 775.496 850.182 779.084 844.276 782.305L846.67 786.695C852.799 783.352 858.532 779.621 863.868 775.501L860.812 771.543ZM844.29 782.298C841.056 784.034 837.68 785.613 834.162 787.033L836.033 791.67C839.715 790.184 843.256 788.528 846.655 786.702L844.29 782.298ZM823.572 790.702C816.699 792.718 809.354 794.212 801.533 795.178L802.146 800.14C810.211 799.144 817.823 797.599 824.979 795.5L823.572 790.702ZM790.285 796.184C786.609 796.395 782.838 796.5 778.973 796.5V801.5C782.928 801.5 786.795 801.392 790.571 801.176L790.285 796.184ZM778.973 739.5C773.795 739.5 768.946 739.149 764.423 738.453L763.663 743.395C768.465 744.134 773.57 744.5 778.973 744.5V739.5ZM750.467 734.835C745.836 733.057 741.675 730.777 737.973 728L734.973 732C739.067 735.071 743.639 737.57 748.675 739.503L750.467 734.835ZM738.003 728.023C734.631 725.412 731.537 722.547 728.719 719.426L725.008 722.777C728.027 726.12 731.339 729.187 734.942 731.977L738.003 728.023ZM721.104 709.316C718.908 705.802 716.965 702.041 715.277 698.03L710.669 699.97C712.456 704.215 714.52 708.214 716.863 711.965L721.104 709.316ZM715.298 698.082C713.641 693.884 712.17 689.612 710.885 685.264L706.09 686.682C707.417 691.17 708.936 695.582 710.647 699.918L715.298 698.082ZM707.609 672.104C706.714 667.711 705.996 663.244 705.455 658.704L700.49 659.296C701.047 663.969 701.786 668.572 702.71 673.103L707.609 672.104ZM705.456 658.711C704.927 654.164 704.483 649.704 704.123 645.329L699.14 645.738C699.505 650.172 699.954 654.688 700.489 659.289L705.456 658.711ZM703.273 631.919C703.073 627.343 702.973 622.87 702.973 618.5H697.973C697.973 622.947 698.074 627.493 698.278 632.138L703.273 631.919ZM702.973 618.5C702.973 614.13 703.073 609.657 703.273 605.081L698.278 604.862C698.074 609.507 697.973 614.053 697.973 618.5H702.973ZM704.123 591.671C704.483 587.296 704.927 582.836 705.456 578.289L700.489 577.711C699.954 582.312 699.505 586.828 699.14 591.262L704.123 591.671ZM705.449 578.345C706.089 573.758 706.902 569.278 707.887 564.905L703.009 563.806C701.992 568.319 701.155 572.935 700.497 577.655L705.449 578.345ZM711.473 551.745C712.881 547.378 714.479 543.127 716.267 538.992L711.678 537.008C709.825 541.292 708.171 545.694 706.715 550.211L711.473 551.745ZM716.277 538.97C717.965 534.959 719.908 531.198 722.104 527.684L717.863 525.035C715.52 528.786 713.456 532.785 711.669 537.03L716.277 538.97ZM729.719 517.574C732.537 514.453 735.631 511.588 739.003 508.977L735.942 505.023C732.339 507.813 729.027 510.88 726.008 514.223L729.719 517.574ZM738.973 509C742.654 506.239 746.765 503.97 751.316 502.198L749.502 497.539C744.55 499.467 740.036 501.952 735.973 505L738.973 509ZM765.096 498.56C769.572 497.855 774.363 497.5 779.473 497.5V492.5C774.133 492.5 769.08 492.871 764.319 493.621L765.096 498.56ZM779.473 497.5C784.543 497.5 789.284 497.85 793.7 498.543L794.476 493.604C789.774 492.866 784.772 492.5 779.473 492.5V497.5ZM807.32 502.156C811.826 503.93 815.863 506.205 819.442 508.977L822.503 505.023C818.527 501.945 814.072 499.44 809.151 497.503L807.32 502.156ZM819.442 508.977C822.815 511.588 825.909 514.453 828.727 517.574L832.438 514.223C829.419 510.88 826.107 507.813 822.503 505.023L819.442 508.977ZM836.342 527.684C838.537 531.198 840.48 534.959 842.169 538.97L846.777 537.03C844.989 532.785 842.925 528.786 840.582 525.035L836.342 527.684ZM842.169 538.97C843.941 543.18 845.508 547.484 846.868 551.883L851.645 550.405C850.236 545.851 848.613 541.392 846.777 537.03L842.169 538.97ZM850.298 565.198C851.222 569.638 851.952 574.168 852.489 578.789L857.456 578.211C856.902 573.446 856.148 568.769 855.194 564.18L850.298 565.198ZM852.49 578.796C853.023 583.269 853.47 587.673 853.831 592.006L858.813 591.591C858.447 587.197 857.994 582.734 857.455 578.204L852.49 578.796ZM854.677 605.247C854.874 609.745 854.973 614.163 854.973 618.5H859.973C859.973 614.087 859.872 609.597 859.672 605.028L854.677 605.247ZM854.973 618.5C854.973 622.867 854.853 627.337 854.612 631.91L859.605 632.172C859.85 627.516 859.973 622.958 859.973 618.5H854.973ZM853.592 645.303C853.162 649.667 852.63 654.118 851.997 658.655L856.949 659.345C857.591 654.745 858.13 650.228 858.568 645.794L853.592 645.303ZM851.989 658.711C851.452 663.332 850.722 667.862 849.798 672.302L854.694 673.32C855.648 668.731 856.402 664.054 856.956 659.289L851.989 658.711ZM846.368 685.617C845.008 690.016 843.441 694.32 841.669 698.53L846.277 700.47C848.113 696.108 849.736 691.649 851.145 687.095L846.368 685.617ZM841.678 698.508C839.968 702.462 837.979 706.179 835.711 709.662L839.901 712.39C842.328 708.663 844.449 704.696 846.267 700.492L841.678 698.508ZM827.909 719.587C825.053 722.619 821.908 725.423 818.473 728L821.473 732C825.131 729.256 828.49 726.261 831.549 723.015L827.909 719.587ZM818.442 728.023C814.883 730.779 810.896 733.043 806.47 734.811L808.325 739.454C813.161 737.522 817.558 735.031 821.503 731.977L818.442 728.023ZM793.027 738.443C788.658 739.146 783.975 739.5 778.973 739.5V744.5C784.209 744.5 789.16 744.129 793.82 743.38L793.027 738.443ZM713.473 785.5L711.171 789.939L711.204 789.956L711.237 789.972L713.473 785.5ZM669.973 746.5L665.8 749.254L665.8 749.254L669.973 746.5ZM645.473 689L640.601 690.124L640.609 690.16L640.618 690.195L645.473 689ZM645.473 548L640.613 546.822L640.605 546.857L640.597 546.892L645.473 548ZM669.973 490.5L665.838 487.688L665.832 487.698L665.825 487.707L669.973 490.5ZM713.973 451.5L716.274 455.939L716.306 455.922L716.338 455.905L713.973 451.5ZM845.973 452L843.544 456.371L843.561 456.38L843.578 456.389L845.973 452ZM889.473 492.5L885.237 495.157L885.256 495.187L885.275 495.216L889.473 492.5ZM912.973 550.5L908.085 551.553L908.092 551.589L908.101 551.624L912.973 550.5ZM912.973 686L908.101 684.876L908.092 684.911L908.085 684.947L912.973 686ZM889.473 744L893.671 746.716L893.671 746.716L889.473 744ZM845.473 784.5L847.838 788.905L847.853 788.897L847.867 788.889L845.473 784.5ZM819.973 730L816.973 726L816.942 726.023L816.912 726.046L819.973 730ZM843.973 699.5L848.562 701.485L848.572 701.462L848.581 701.44L843.973 699.5ZM854.473 659L849.521 658.309L849.513 658.366L849.506 658.422L854.473 659ZM854.973 578.5L850.006 579.077L850.008 579.091L854.973 578.5ZM844.473 538L839.864 539.94L839.864 539.94L844.473 538ZM820.973 507L824.034 503.046L824.034 503.046L820.973 507ZM737.473 507L734.473 503L734.442 503.023L734.412 503.046L737.473 507ZM713.973 538L718.562 539.985L718.571 539.962L718.581 539.94L713.973 538ZM702.973 578L698.021 577.309L698.013 577.366L698.006 577.422L702.973 578ZM702.973 659L698.006 659.577L698.008 659.591L702.973 659ZM712.973 699L708.322 700.836L708.343 700.888L708.364 700.94L712.973 699ZM736.473 730L733.412 733.954L733.442 733.977L733.473 734L736.473 730ZM778.973 794C771.311 794 764.025 793.59 757.111 792.775L755.941 802.706C763.276 803.571 770.955 804 778.973 804V794ZM735.795 788.668C728.589 786.672 721.897 784.122 715.709 781.028L711.237 789.972C718.041 793.375 725.342 796.149 733.126 798.305L735.795 788.668ZM715.774 781.061C710.071 778.104 704.747 774.77 699.797 771.063L693.802 779.066C699.205 783.114 704.997 786.737 711.171 789.939L715.774 781.061ZM685.792 758.53C681.544 753.999 677.662 749.073 674.146 743.746L665.8 749.254C669.62 755.042 673.852 760.416 678.497 765.37L685.792 758.53ZM674.146 743.746C670.466 738.17 667.109 732.299 664.076 726.13L655.102 730.542C658.316 737.079 661.881 743.317 665.8 749.254L674.146 743.746ZM656.18 707.373C653.949 701.111 651.998 694.589 650.328 687.805L640.618 690.195C642.364 697.291 644.411 704.136 646.76 710.729L656.18 707.373ZM650.345 687.876C649.487 684.161 648.705 680.395 647.997 676.577L638.164 678.401C638.898 682.359 639.71 686.266 640.601 690.124L650.345 687.876ZM646.126 665.177C645.055 657.697 644.256 650.027 643.73 642.167L633.753 642.835C634.295 650.935 635.119 658.856 636.227 666.595L646.126 665.177ZM643.158 630.595C643.035 626.773 642.973 622.908 642.973 619H632.973C632.973 623.014 633.036 626.987 633.164 630.919L643.158 630.595ZM642.973 619C642.973 615.036 643.035 611.115 643.159 607.237L633.164 606.918C633.036 610.905 632.973 614.932 632.973 619H642.973ZM643.731 595.497C644.258 587.525 645.057 579.743 646.129 572.15L636.227 570.752C635.119 578.6 634.295 586.629 633.753 594.839L643.731 595.497ZM648 560.579C648.708 556.703 649.491 552.88 650.348 549.108L640.597 546.892C639.708 550.805 638.896 554.768 638.163 558.781L648 560.579ZM650.332 549.178C651.986 542.355 653.915 535.825 656.118 529.586L646.688 526.257C644.367 532.833 642.343 539.689 640.613 546.822L650.332 549.178ZM663.984 510.829C667.035 504.639 670.414 498.795 674.12 493.293L665.825 487.707C661.86 493.595 658.257 499.83 655.015 506.408L663.984 510.829ZM674.107 493.312C677.726 487.99 681.691 483.068 686.003 478.54L678.761 471.644C674.063 476.578 669.756 481.927 665.838 487.688L674.107 493.312ZM700.176 465.987C705.183 462.258 710.547 458.908 716.274 455.939L711.671 447.061C705.479 450.272 699.655 453.906 694.203 457.966L700.176 465.987ZM716.338 455.905C719.458 454.23 722.704 452.704 726.078 451.329L722.303 442.069C718.611 443.573 715.045 445.249 711.607 447.095L716.338 455.905ZM736.273 447.748C742.927 445.762 750.022 444.284 757.567 443.324L756.306 433.404C748.265 434.427 740.631 436.011 733.412 438.166L736.273 447.748ZM768.477 442.317C772.052 442.106 775.717 442 779.473 442V432C775.529 432 771.667 432.111 767.887 432.335L768.477 442.317ZM779.473 442C783.298 442 787.026 442.108 790.657 442.323L791.249 432.341C787.412 432.113 783.486 432 779.473 432V442ZM801.751 443.353C809.447 444.338 816.655 445.859 823.382 447.905L826.291 438.337C818.982 436.115 811.223 434.484 803.022 433.434L801.751 443.353ZM833.712 451.612C837.13 453.041 840.407 454.628 843.544 456.371L848.401 447.629C844.931 445.701 841.32 443.954 837.569 442.386L833.712 451.612ZM843.578 456.389C849.35 459.537 854.711 463.037 859.667 466.886L865.8 458.988C860.403 454.796 854.59 451.005 848.367 447.61L843.578 456.389ZM873.702 479.89C877.957 484.595 881.803 489.683 885.237 495.157L893.708 489.843C889.968 483.882 885.772 478.327 881.119 473.182L873.702 479.89ZM885.275 495.216C888.926 500.859 892.22 506.772 895.155 512.956L904.189 508.668C901.069 502.095 897.563 495.8 893.671 489.784L885.275 495.216ZM902.726 531.847C904.83 538.169 906.617 544.737 908.085 551.553L917.861 549.447C916.319 542.291 914.438 535.371 912.215 528.69L902.726 531.847ZM908.101 551.624C908.939 555.256 909.706 558.918 910.401 562.609L920.228 560.757C919.508 556.934 918.713 553.141 917.845 549.376L908.101 551.624ZM912.26 573.682C913.343 581.014 914.152 588.459 914.688 596.018L924.663 595.311C924.109 587.505 923.273 579.808 922.153 572.221L912.26 573.682ZM915.279 607.249C915.408 610.972 915.473 614.723 915.473 618.5H925.473C925.473 614.608 925.406 610.742 925.273 606.902L915.279 607.249ZM915.473 618.5C915.473 622.244 915.407 625.966 915.277 629.665L925.27 630.018C925.405 626.2 925.473 622.361 925.473 618.5H915.473ZM914.68 640.81C914.142 648.294 913.33 655.683 912.245 662.979L922.136 664.45C923.259 656.901 924.099 649.259 924.655 641.527L914.68 640.81ZM910.389 673.97C909.697 677.629 908.934 681.264 908.101 684.876L917.845 687.124C918.708 683.383 919.498 679.618 920.215 675.828L910.389 673.97ZM908.085 684.947C906.617 691.763 904.83 698.331 902.726 704.653L912.215 707.81C914.438 701.129 916.319 694.209 917.861 687.053L908.085 684.947ZM895.155 723.544C892.22 729.728 888.926 735.641 885.275 741.284L893.671 746.716C897.563 740.7 901.069 734.405 904.189 727.832L895.155 723.544ZM885.275 741.284C881.736 746.753 877.807 751.837 873.487 756.54L880.851 763.305C885.558 758.18 889.832 752.649 893.671 746.716L885.275 741.284ZM859.284 769.564C854.273 773.434 848.873 776.95 843.078 780.111L847.867 788.889C854.107 785.486 859.952 781.683 865.396 777.479L859.284 769.564ZM843.107 780.095C839.955 781.788 836.662 783.328 833.226 784.715L836.969 793.988C840.733 792.469 844.356 790.775 847.838 788.905L843.107 780.095ZM822.868 788.303C816.137 790.278 808.926 791.746 801.227 792.697L802.453 802.621C810.639 801.61 818.385 800.04 825.683 797.899L822.868 788.303ZM790.143 793.688C786.516 793.896 782.792 794 778.973 794V804C782.974 804 786.888 803.891 790.714 803.672L790.143 793.688ZM778.973 737C773.907 737 769.186 736.656 764.803 735.982L763.283 745.866C768.225 746.626 773.458 747 778.973 747V737ZM751.363 732.501C746.934 730.801 742.979 728.63 739.473 726L733.473 734C737.764 737.218 742.541 739.826 747.779 741.837L751.363 732.501ZM739.534 726.046C736.277 723.525 733.292 720.76 730.574 717.751L723.152 724.452C726.271 727.907 729.693 731.074 733.412 733.954L739.534 726.046ZM723.224 707.991C721.102 704.595 719.22 700.953 717.581 697.06L708.364 700.94C710.201 705.303 712.326 709.421 714.743 713.289L723.224 707.991ZM717.623 697.164C715.994 693.035 714.547 688.833 713.282 684.556L703.692 687.391C705.04 691.949 706.583 696.431 708.322 700.836L717.623 697.164ZM710.059 671.605C709.177 667.28 708.47 662.882 707.938 658.409L698.008 659.591C698.572 664.332 699.323 669.002 700.26 673.602L710.059 671.605ZM707.939 658.422C707.414 653.902 706.972 649.469 706.615 645.124L696.649 645.943C697.015 650.406 697.468 654.95 698.006 659.577L707.939 658.422ZM705.771 631.81C705.572 627.269 705.473 622.832 705.473 618.5H695.473C695.473 622.985 695.575 627.567 695.78 632.247L705.771 631.81ZM705.473 618.5C705.473 614.168 705.572 609.731 705.771 605.19L695.78 604.753C695.575 609.433 695.473 614.015 695.473 618.5H705.473ZM706.615 591.876C706.972 587.53 707.414 583.098 707.939 578.577L698.006 577.422C697.468 582.05 697.015 586.594 696.649 591.057L706.615 591.876ZM707.925 578.691C708.556 574.17 709.356 569.758 710.325 565.454L700.57 563.257C699.538 567.839 698.688 572.523 698.021 577.309L707.925 578.691ZM713.853 552.512C715.237 548.22 716.806 544.044 718.562 539.985L709.383 536.015C707.498 540.375 705.816 544.852 704.335 549.444L713.853 552.512ZM718.581 539.94C720.22 536.047 722.102 532.405 724.224 529.009L715.743 523.711C713.326 527.579 711.201 531.697 709.364 536.06L718.581 539.94ZM731.574 519.249C734.292 516.24 737.277 513.475 740.534 510.954L734.412 503.046C730.693 505.926 727.271 509.093 724.152 512.548L731.574 519.249ZM740.473 511C743.963 508.382 747.872 506.221 752.223 504.528L748.595 495.209C743.442 497.215 738.728 499.809 734.473 503L740.473 511ZM765.485 501.029C769.819 500.347 774.479 500 779.473 500V490C774.018 490 768.834 490.379 763.93 491.151L765.485 501.029ZM779.473 500C784.429 500 789.039 500.342 793.312 501.013L794.864 491.134C790.019 490.374 784.886 490 779.473 490V500ZM806.404 504.482C810.703 506.174 814.53 508.336 817.912 510.954L824.034 503.046C819.859 499.814 815.195 497.195 810.067 495.177L806.404 504.482ZM817.912 510.954C821.169 513.475 824.154 516.24 826.871 519.249L834.293 512.548C831.174 509.093 827.753 505.926 824.034 503.046L817.912 510.954ZM834.221 529.009C836.343 532.405 838.225 536.047 839.864 539.94L849.081 536.06C847.244 531.697 845.119 527.579 842.703 523.711L834.221 529.009ZM839.864 539.94C841.605 544.074 843.143 548.3 844.48 552.621L854.033 549.666C852.6 545.034 850.95 540.498 849.081 536.06L839.864 539.94ZM847.851 565.707C848.758 570.072 849.477 574.529 850.006 579.077L859.939 577.922C859.377 573.085 858.611 568.335 857.641 563.671L847.851 565.707ZM850.008 579.091C850.537 583.536 850.981 587.911 851.339 592.214L861.305 591.383C860.936 586.959 860.48 582.467 859.938 577.909L850.008 579.091ZM852.179 605.356C852.375 609.82 852.473 614.201 852.473 618.5H862.473C862.473 614.05 862.372 609.522 862.17 604.918L852.179 605.356ZM852.473 618.5C852.473 622.821 852.354 627.247 852.116 631.778L862.102 632.304C862.349 627.605 862.473 623.004 862.473 618.5H852.473ZM851.104 645.057C850.677 649.387 850.149 653.804 849.521 658.309L859.425 659.691C860.071 655.059 860.615 650.508 861.056 646.04L851.104 645.057ZM849.506 658.422C848.977 662.971 848.258 667.428 847.351 671.793L857.141 673.829C858.111 669.165 858.877 664.415 859.439 659.577L849.506 658.422ZM843.98 684.879C842.643 689.2 841.105 693.426 839.364 697.56L848.581 701.44C850.45 697.002 852.1 692.466 853.533 687.834L843.98 684.879ZM839.383 697.515C837.728 701.344 835.804 704.937 833.616 708.298L841.996 713.754C844.502 709.905 846.69 705.814 848.562 701.485L839.383 697.515ZM826.089 717.872C823.334 720.797 820.297 723.507 816.973 726L822.973 734C826.742 731.173 830.209 728.083 833.368 724.729L826.089 717.872ZM816.912 726.046C813.546 728.652 809.764 730.803 805.542 732.489L809.252 741.776C814.294 739.762 818.895 737.158 823.034 733.954L816.912 726.046ZM792.631 735.975C788.407 736.654 783.857 737 778.973 737V747C784.327 747 789.411 746.621 794.217 745.848L792.631 735.975ZM1145.53 795H1143.03V797.5H1145.53V795ZM1145.53 728H1148.03V725.5H1145.53V728ZM961.527 728H959.027V730.5H961.527V728ZM961.527 681L959.477 679.57L959.027 680.214V681H961.527ZM1128.53 441.5V439H1127.22L1126.48 440.07L1128.53 441.5ZM1207.03 441.5H1209.53V439H1207.03V441.5ZM1207.03 671.5H1204.53V674H1207.03V671.5ZM1247.53 671.5H1250.03V669H1247.53V671.5ZM1247.53 728V730.5H1250.03V728H1247.53ZM1207.03 728V725.5H1204.53V728H1207.03ZM1207.03 795V797.5H1209.53V795H1207.03ZM1033.53 671.5L1031.46 670.093L1028.8 674H1033.53V671.5ZM1145.53 671.5V674H1148.03V671.5H1145.53ZM1145.53 507H1148.03V498.886L1143.46 505.593L1145.53 507ZM1148.03 795V772.667H1143.03V795H1148.03ZM1148.03 750.333V728H1143.03V750.333H1148.03ZM1145.53 725.5H1130.19V730.5H1145.53V725.5ZM1114.86 725.5H1084.19V730.5H1114.86V725.5ZM1068.86 725.5H1038.19V730.5H1068.86V725.5ZM1022.86 725.5H992.194V730.5H1022.86V725.5ZM976.861 725.5H961.527V730.5H976.861V725.5ZM964.027 728V712.333H959.027V728H964.027ZM964.027 696.667V681H959.027V696.667H964.027ZM963.578 682.43L972.856 669.124L968.754 666.265L959.477 679.57L963.578 682.43ZM982.134 655.819L1000.69 629.208L996.588 626.348L978.032 652.959L982.134 655.819ZM1009.97 615.902L1028.52 589.291L1024.42 586.431L1005.87 613.042L1009.97 615.902ZM1037.8 575.985L1056.36 549.374L1052.25 546.515L1033.7 573.126L1037.8 575.985ZM1065.63 536.069L1084.19 509.458L1080.09 506.598L1061.53 533.209L1065.63 536.069ZM1093.47 496.152L1112.02 469.541L1107.92 466.681L1089.37 493.292L1093.47 496.152ZM1121.3 456.235L1130.58 442.93L1126.48 440.07L1117.2 453.376L1121.3 456.235ZM1128.53 444H1141.61V439H1128.53V444ZM1154.69 444H1180.86V439H1154.69V444ZM1193.94 444H1207.03V439H1193.94V444ZM1204.53 441.5V456.833H1209.53V441.5H1204.53ZM1204.53 472.167V502.833H1209.53V472.167H1204.53ZM1204.53 518.167V548.833H1209.53V518.167H1204.53ZM1204.53 564.167V594.833H1209.53V564.167H1204.53ZM1204.53 610.167V640.833H1209.53V610.167H1204.53ZM1204.53 656.167V671.5H1209.53V656.167H1204.53ZM1207.03 674H1220.53V669H1207.03V674ZM1234.03 674H1247.53V669H1234.03V674ZM1245.03 671.5V690.333H1250.03V671.5H1245.03ZM1245.03 709.167V728H1250.03V709.167H1245.03ZM1247.53 725.5H1234.03V730.5H1247.53V725.5ZM1220.53 725.5H1207.03V730.5H1220.53V725.5ZM1204.53 728V750.333H1209.53V728H1204.53ZM1204.53 772.667V795H1209.53V772.667H1204.53ZM1207.03 792.5H1186.53V797.5H1207.03V792.5ZM1166.03 792.5H1145.53V797.5H1166.03V792.5ZM1035.59 672.907L1044.93 659.199L1040.79 656.385L1031.46 670.093L1035.59 672.907ZM1054.26 645.49L1072.93 618.074L1068.79 615.26L1050.13 642.676L1054.26 645.49ZM1082.26 604.365L1100.93 576.949L1096.79 574.135L1078.13 601.551L1082.26 604.365ZM1110.26 563.24L1128.93 535.824L1124.79 533.01L1106.13 560.426L1110.26 563.24ZM1138.26 522.115L1147.59 508.407L1143.46 505.593L1134.13 519.301L1138.26 522.115ZM1143.03 507V520.708H1148.03V507H1143.03ZM1143.03 534.417V561.833H1148.03V534.417H1143.03ZM1143.03 575.542V602.958H1148.03V575.542H1143.03ZM1143.03 616.667V644.083H1148.03V616.667H1143.03ZM1143.03 657.792V671.5H1148.03V657.792H1143.03ZM1145.53 669H1126.86V674H1145.53V669ZM1108.19 669H1070.86V674H1108.19V669ZM1052.19 669H1033.53V674H1052.19V669ZM1145.53 795H1140.53V800H1145.53V795ZM1145.53 728H1150.53V723H1145.53V728ZM961.527 728H956.527V733H961.527V728ZM961.527 681L957.426 678.14L956.527 679.429V681H961.527ZM1128.53 441.5V436.5H1125.92L1124.43 438.64L1128.53 441.5ZM1207.03 441.5H1212.03V436.5H1207.03V441.5ZM1207.03 671.5H1202.03V676.5H1207.03V671.5ZM1247.53 671.5H1252.53V666.5H1247.53V671.5ZM1247.53 728V733H1252.53V728H1247.53ZM1207.03 728V723H1202.03V728H1207.03ZM1207.03 795V800H1212.03V795H1207.03ZM1033.53 671.5L1029.39 668.686L1024.07 676.5H1033.53V671.5ZM1145.53 671.5V676.5H1150.53V671.5H1145.53ZM1145.53 507H1150.53V490.772L1141.39 504.186L1145.53 507ZM1150.53 795V772.667H1140.53V795H1150.53ZM1150.53 750.333V728H1140.53V750.333H1150.53ZM1145.53 723H1130.19V733H1145.53V723ZM1114.86 723H1084.19V733H1114.86V723ZM1068.86 723H1038.19V733H1068.86V723ZM1022.86 723H992.194V733H1022.86V723ZM976.861 723H961.527V733H976.861V723ZM966.527 728V712.333H956.527V728H966.527ZM966.527 696.667V681H956.527V696.667H966.527ZM965.629 683.86L974.907 670.554L966.704 664.835L957.426 678.14L965.629 683.86ZM984.184 657.249L1002.74 630.638L994.537 624.918L975.982 651.529L984.184 657.249ZM1012.02 617.332L1030.57 590.721L1022.37 585.001L1003.81 611.612L1012.02 617.332ZM1039.85 577.415L1058.41 550.804L1050.2 545.085L1031.65 571.696L1039.85 577.415ZM1067.68 537.499L1086.24 510.888L1078.04 505.168L1059.48 531.779L1067.68 537.499ZM1095.52 497.582L1114.07 470.971L1105.87 465.251L1087.31 491.862L1095.52 497.582ZM1123.35 457.665L1132.63 444.36L1124.43 438.64L1115.15 451.946L1123.35 457.665ZM1128.53 446.5H1141.61V436.5H1128.53V446.5ZM1154.69 446.5H1180.86V436.5H1154.69V446.5ZM1193.94 446.5H1207.03V436.5H1193.94V446.5ZM1202.03 441.5V456.833H1212.03V441.5H1202.03ZM1202.03 472.167V502.833H1212.03V472.167H1202.03ZM1202.03 518.167V548.833H1212.03V518.167H1202.03ZM1202.03 564.167V594.833H1212.03V564.167H1202.03ZM1202.03 610.167V640.833H1212.03V610.167H1202.03ZM1202.03 656.167V671.5H1212.03V656.167H1202.03ZM1207.03 676.5H1220.53V666.5H1207.03V676.5ZM1234.03 676.5H1247.53V666.5H1234.03V676.5ZM1242.53 671.5V690.333H1252.53V671.5H1242.53ZM1242.53 709.167V728H1252.53V709.167H1242.53ZM1247.53 723H1234.03V733H1247.53V723ZM1220.53 723H1207.03V733H1220.53V723ZM1202.03 728V750.333H1212.03V728H1202.03ZM1202.03 772.667V795H1212.03V772.667H1202.03ZM1207.03 790H1186.53V800H1207.03V790ZM1166.03 790H1145.53V800H1166.03V790ZM1037.66 674.314L1046.99 660.606L1038.73 654.978L1029.39 668.686L1037.66 674.314ZM1056.33 646.897L1074.99 619.481L1066.73 613.853L1048.06 641.269L1056.33 646.897ZM1084.33 605.772L1102.99 578.356L1094.73 572.728L1076.06 600.144L1084.33 605.772ZM1112.33 564.647L1130.99 537.231L1122.73 531.603L1104.06 559.019L1112.33 564.647ZM1140.33 523.522L1149.66 509.814L1141.39 504.186L1132.06 517.894L1140.33 523.522ZM1140.53 507V520.708H1150.53V507H1140.53ZM1140.53 534.417V561.833H1150.53V534.417H1140.53ZM1140.53 575.542V602.958H1150.53V575.542H1140.53ZM1140.53 616.667V644.083H1150.53V616.667H1140.53ZM1140.53 657.792V671.5H1150.53V657.792H1140.53ZM1145.53 666.5H1126.86V676.5H1145.53V666.5ZM1108.19 666.5H1070.86V676.5H1108.19V666.5ZM1052.19 666.5H1033.53V676.5H1052.19V666.5Z" fill="black" mask="url(#path-18-outside-1_748_5891)"/>
</g>
</g>
<defs>
<filter id="filter0_d_748_5891" x="0" y="141.5" width="1647" height="993.5" filterUnits="userSpaceOnUse" color-interpolation-filters="sRGB">
<feFlood flood-opacity="0" result="BackgroundImageFix"/>
<feColorMatrix in="SourceAlpha" type="matrix" values="0 0 0 0 0 0 0 0 0 0 0 0 0 0 0 0 0 0 127 0" result="hardAlpha"/>
<feOffset dx="22" dy="45"/>
<feGaussianBlur stdDeviation="50"/>
<feComposite in2="hardAlpha" operator="out"/>
<feColorMatrix type="matrix" values="0 0 0 0 0 0 0 0 0 0 0 0 0 0 0 0 0 0 0.1 0"/>
<feBlend mode="normal" in2="BackgroundImageFix" result="effect1_dropShadow_748_5891"/>
<feBlend mode="normal" in="SourceGraphic" in2="effect1_dropShadow_748_5891" result="shape"/>
</filter>
</defs>
</svg>
