<svg width="1023" height="648" viewBox="0 0 1023 648" fill="none" xmlns="http://www.w3.org/2000/svg">
<path d="M766.77 211.871C763.536 210.548 760.584 208.801 757.912 206.63C755.333 204.497 753.202 202.061 751.517 199.323C749.871 196.493 748.902 193.454 748.612 190.207C748.36 186.869 748.99 183.351 750.502 179.655C752.429 174.943 754.921 171.486 757.979 169.285C761.074 166.992 764.513 165.702 768.297 165.416C772.174 165.168 776.258 165.598 780.551 166.707C784.881 167.723 789.263 169.138 793.699 170.952L807.974 176.791C809.297 173.557 809.923 170.577 809.851 167.851C809.817 165.033 808.975 162.477 807.324 160.184C805.766 157.929 803.277 156.102 799.859 154.704C797.641 153.797 795.449 153.224 793.281 152.985C791.244 152.691 789.306 152.815 787.467 153.357C785.757 153.844 784.285 154.806 783.051 156.243L765.726 149.157C767.922 145.633 770.538 142.928 773.575 141.042C776.741 139.101 780.116 137.839 783.698 137.255C787.373 136.709 791.136 136.738 794.987 137.342C798.877 137.854 802.623 138.847 806.227 140.321C813.341 143.231 818.55 146.979 821.851 151.565C825.245 156.189 826.946 161.523 826.955 167.566C826.964 173.61 825.476 180.281 822.49 187.581L806.391 226.943L791.422 220.821L794.634 211.781C791.543 213.537 788.356 214.606 785.071 214.988C781.917 215.316 778.795 215.171 775.704 214.554C772.612 213.937 769.635 213.043 766.77 211.871ZM776.263 199.737C780.051 201.286 783.661 201.954 787.093 201.739C790.524 201.525 793.581 200.51 796.265 198.696C798.948 196.881 800.97 194.311 802.331 190.984L803.238 188.767L790.071 183.382C787.669 182.399 785.321 181.547 783.028 180.824C780.772 180.01 778.634 179.567 776.614 179.496C774.724 179.37 773.025 179.7 771.518 180.485C770.01 181.271 768.803 182.772 767.896 184.99C767.027 187.115 766.844 189.143 767.348 191.075C767.89 192.915 768.934 194.582 770.48 196.077C772.118 197.61 774.045 198.83 776.263 199.737Z" fill="black"/>
<path d="M669.18 170.825L699.055 97.7822L715.964 104.698L704.003 133.943L715.645 138.704L746.595 117.226L765.721 125.049L728.183 149.98L736.679 198.431L717.136 190.438L710.77 154.184L697.881 148.912L686.09 177.74L669.18 170.825Z" fill="black"/>
<path d="M619.898 151.801C614.908 149.76 610.775 147.207 607.499 144.141C604.223 141.075 601.682 137.663 599.876 133.904C598.2 130.091 597.156 126.051 596.744 121.784C596.37 117.424 596.59 112.931 597.404 108.302C598.218 103.674 599.589 99.0035 601.517 94.2911C604.389 87.2687 607.293 80.9602 610.228 75.3658C613.293 69.7167 616.63 64.9874 620.237 61.1778C623.937 57.4061 628.231 54.6863 633.12 53.0186C638.101 51.3886 643.869 50.9976 650.425 51.8455C654.575 52.2483 658.703 52.9662 662.811 53.999C666.956 54.9395 671.314 56.0206 675.883 57.2424C679.176 58.1577 681.849 58.8736 683.903 59.39C686.049 59.9442 687.872 60.3662 689.371 60.6558C690.963 60.9833 692.397 61.3003 693.674 61.6068L686.815 78.3774C685.74 78.3691 684.61 78.2306 683.426 77.9619C682.334 77.731 681.149 77.4623 679.872 77.1558C678.633 76.7569 677.394 76.358 676.155 75.9591C674.916 75.5602 673.659 75.2075 672.382 74.901C671.235 74.5399 670.089 74.1788 668.942 73.8177C665.002 72.6379 661.017 71.4391 656.985 70.2215C652.953 69.0038 649.028 68.3154 645.21 68.1561C641.392 67.9968 637.816 68.9609 634.482 71.0485C633.067 71.8718 631.611 73.0563 630.116 74.602C628.714 76.1854 627.412 77.918 626.211 79.7996C625.048 81.5888 624.05 83.4999 623.219 85.5327C626.461 83.4073 629.808 82.0799 633.261 81.5504C636.713 81.0209 640.115 81.0102 643.466 81.5181C646.91 82.0638 649.972 82.8846 652.651 83.9806C659.304 86.7016 664.336 90.4853 667.747 95.3317C671.195 100.086 673.081 105.495 673.405 111.56C673.767 117.532 672.606 123.798 669.923 130.358C667.051 137.381 663.068 143.032 657.973 147.312C652.917 151.5 647.132 154.041 640.618 154.936C634.104 155.831 627.197 154.786 619.898 151.801ZM626.159 136.888C630.224 138.551 633.975 139.007 637.41 138.255C640.976 137.448 644.075 135.803 646.708 133.321C649.341 130.839 651.376 127.842 652.812 124.331C654.248 120.82 654.859 117.348 654.645 113.917C654.43 110.486 653.342 107.344 651.381 104.493C649.419 101.641 646.452 99.403 642.478 97.778C638.598 96.1907 634.893 95.7542 631.365 96.4685C627.875 97.0903 624.786 98.5773 622.099 100.929C619.449 103.189 617.425 106.028 616.026 109.447C614.628 112.866 613.952 116.365 613.999 119.943C614.138 123.559 615.15 126.885 617.036 129.922C618.96 132.866 622.001 135.188 626.159 136.888Z" fill="black"/>
<path d="M554.273 136.76C546.76 139.751 539.658 140.805 532.968 139.923C526.37 139.004 520.46 136.307 515.24 131.831C510.112 127.318 506.034 121.259 503.006 113.654C499.941 105.955 498.738 98.7515 499.398 92.0418C500.113 85.2025 502.533 79.1351 506.657 73.8399C510.873 68.5077 516.738 64.346 524.251 61.3549C531.671 58.4006 538.698 57.4293 545.333 58.441C551.968 59.4526 557.868 62.2613 563.032 66.867C568.16 71.3799 572.257 77.4854 575.322 85.1836C578.313 92.6962 579.497 99.8537 578.874 106.656C578.308 113.329 575.944 119.267 571.783 124.469C567.622 129.672 561.786 133.768 554.273 136.76ZM547.985 121.372C552.623 119.526 555.926 117.029 557.896 113.88C559.959 110.695 560.975 107.174 560.944 103.319C560.913 99.4626 560.122 95.5869 558.572 91.6914C557.021 87.796 554.913 84.3909 552.248 81.4762C549.583 78.5615 546.407 76.6563 542.719 75.7605C539.087 74.7352 534.953 75.1456 530.315 76.992C525.678 78.8384 522.346 81.4006 520.32 84.6786C518.258 87.8638 517.26 91.4308 517.328 95.3795C517.396 99.3282 518.205 103.25 519.756 107.146C521.344 111.134 523.452 114.539 526.08 117.361C528.708 120.183 531.865 122.042 535.553 122.937C539.204 123.74 543.348 123.219 547.985 121.372Z" fill="black"/>
<path d="M445.781 210.096L405.844 109.788L421.704 103.473L426.526 113.158C427.851 108.118 430.249 103.885 433.721 100.461C437.193 97.0375 441.248 94.4023 445.885 92.5559C452.934 89.7494 459.488 89.074 465.548 90.5296C471.608 91.9853 476.941 95.1267 481.55 99.9539C486.121 104.688 489.828 110.626 492.672 117.768C495.515 124.91 496.858 131.79 496.699 138.407C496.633 144.988 494.806 150.927 491.22 156.223C487.69 161.389 482.122 165.487 474.516 168.515C470.992 169.918 467.691 170.802 464.613 171.168C461.498 171.441 458.615 171.353 455.965 170.904C453.371 170.325 451.018 169.543 448.906 168.557L462.754 203.338L445.781 210.096ZM466.058 154.153C470.788 152.269 474.092 149.772 475.969 146.661C477.81 143.457 478.668 139.945 478.544 136.126C478.384 132.214 477.546 128.357 476.032 124.554C474.445 120.566 472.318 117.115 469.653 114.2C467.081 111.248 463.979 109.26 460.348 108.234C456.716 107.209 452.581 107.619 447.944 109.466C443.677 111.165 440.485 113.671 438.366 116.986C436.303 120.171 435.213 123.775 435.095 127.798C434.978 131.82 435.713 135.826 437.301 139.814C438.926 143.895 441.117 147.374 443.874 150.252C446.595 153.037 449.846 154.859 453.626 155.718C457.369 156.484 461.513 155.962 466.058 154.153Z" fill="black"/>
<path d="M385.939 203.781C378.426 206.772 371.325 207.827 364.634 206.945C358.036 206.026 352.126 203.329 346.906 198.853C341.778 194.34 337.7 188.281 334.672 180.675C331.607 172.977 330.404 165.773 331.064 159.063C331.779 152.224 334.199 146.157 338.323 140.862C342.539 135.529 348.404 131.368 355.917 128.377C363.337 125.422 370.364 124.451 376.999 125.463C383.634 126.474 389.534 129.283 394.698 133.889C399.826 138.402 403.923 144.507 406.988 152.205C409.979 159.718 411.163 166.875 410.54 173.678C409.974 180.351 407.61 186.288 403.449 191.491C399.288 196.693 393.452 200.79 385.939 203.781ZM379.651 188.394C384.289 186.548 387.592 184.05 389.563 180.902C391.625 177.717 392.641 174.196 392.61 170.34C392.579 166.484 391.788 162.609 390.238 158.713C388.687 154.818 386.579 151.413 383.914 148.498C381.249 145.583 378.073 143.678 374.385 142.782C370.753 141.757 366.619 142.167 361.981 144.014C357.344 145.86 354.012 148.422 351.986 151.7C349.924 154.885 348.926 158.452 348.994 162.401C349.062 166.35 349.871 170.272 351.422 174.167C353.01 178.156 355.118 181.561 357.746 184.383C360.374 187.205 363.531 189.063 367.219 189.959C370.87 190.762 375.014 190.24 379.651 188.394Z" fill="black"/>
<path d="M266.088 250.372L226.926 152.012L244.316 145.088L261.155 187.381L275.346 181.731L286.192 128.415L305.948 120.549L292.28 181.758L345.249 218.854L324.937 226.941L282.495 197.259L267.47 203.241L283.478 243.448L266.088 250.372Z" fill="black"/>
<path d="M569.083 59.386L550 43.5L569.083 32L577 56.1267L569.083 59.386Z" fill="black"/>
<path d="M588.89 65.3962L594.934 65.3962L597.202 56.1719L586.624 56.172L588.89 65.3962Z" fill="black"/>
<path d="M587.963 53.0416L580.691 4.88306L614.999 0.435968L596.996 52.1859L587.963 53.0416Z" fill="black"/>
<path d="M28.0566 330.417L1023 381.155L943.505 449.167L997.82 550.284L968.703 644.466C966.767 650.729 960.977 655 954.421 655H72.8301C67.3974 655 62.3924 652.053 59.7574 647.302L0.359375 540.208L76.9765 449.167L28.0566 330.417Z" fill="#FFBE83"/>
<path d="M28.0566 330.417L1023 381.155L943.505 449.167L997.82 550.284L968.703 644.466C966.767 650.729 960.977 655 954.421 655H72.8301C67.3974 655 62.3924 652.053 59.7574 647.302L0.359375 540.208L76.9765 449.167L28.0566 330.417Z" fill="black" fill-opacity="0.22"/>
<path d="M234.971 275H412.727L586.166 287.955H835.889L878.349 308.826L915.411 342.652L1023 381.155L26.9883 331.496L114.427 320.341L166.243 295.871L234.971 275Z" fill="#FFD0A5"/>
<path d="M153.648 301.629L324.208 314.583L513.48 320.341H709.228L901.222 330.417L916.958 341.972L687.278 331.856H456.626L125.941 314.583L153.648 301.629Z" fill="#626262"/>
<path d="M77.0046 449.167L997.812 550.284L522.476 430.095L77.0046 449.167Z" fill="#FFBA7A"/>
<path d="M77.0046 449.167L997.812 550.284L522.476 430.095L77.0046 449.167Z" fill="black" fill-opacity="0.19"/>
<path d="M575.011 358.845L698.433 475.436L997.812 550.284L943.478 449.167L575.011 358.845Z" fill="#FFC38B"/>
<path d="M575.011 358.845L698.433 475.436L997.812 550.284L943.478 449.167L575.011 358.845Z" fill="black" fill-opacity="0.15"/>
<path d="M540.826 649.962L420.643 499.905L77.0038 449.167L540.826 649.962Z" fill="#FFBF85"/>
<path d="M451.947 489.11L698.791 475.076L997.811 550.284L451.947 489.11Z" fill="#FFD0A4"/>
<path d="M451.947 489.11L698.791 475.076L997.811 550.284L451.947 489.11Z" fill="black" fill-opacity="0.2"/>
<path d="M-6.10352e-05 540.208L540.826 649.962L77.0038 449.167L-6.10352e-05 540.208Z" fill="#FFCD9E"/>
<path d="M77.0039 449.167L27.707 331.136L575.37 358.845L77.0039 449.167Z" fill="#FFC48D"/>
<path d="M77.0039 449.167L27.707 331.136L575.37 358.845L77.0039 449.167Z" fill="black" fill-opacity="0.2"/>
<path d="M943.477 449.167L1023 381.155L575.01 358.845L943.477 449.167Z" fill="#FFC48D"/>
<path d="M943.477 449.167L1023 381.155L575.01 358.845L943.477 449.167Z" fill="black" fill-opacity="0.3"/>
<path d="M989.177 576.913L997.812 550.284L77.0046 449.167L421.003 499.905L989.177 576.913Z" fill="#FFC48D"/>
<path d="M989.177 576.913L997.812 550.284L77.0046 449.167L421.003 499.905L989.177 576.913Z" fill="black" fill-opacity="0.2"/>
<path d="M64.0499 655L0 540.208L565.655 655H64.0499Z" fill="#FFC48D"/>
<path d="M64.0499 655L0 540.208L565.655 655H64.0499Z" fill="black" fill-opacity="0.2"/>
</svg>
