<svg width="1409" height="1098" viewBox="0 0 1409 1098" fill="none" xmlns="http://www.w3.org/2000/svg">
<path d="M499.196 570.336C530.703 488.538 702.779 469.678 739.88 576.157C764.609 647.13 467.688 652.135 499.196 570.336Z" fill="white"/>
<path d="M586.917 629.175C559.3 569.228 689.532 559.72 659.738 628.061C631.103 630.746 615.156 631.015 586.917 629.175Z" fill="black" stroke="black"/>
<rect x="224" y="605" width="1020" height="316" rx="65" fill="white"/>
<path d="M300.329 396H1193.34C1226.03 476.797 1234.34 517.43 1209.68 612.113C1208.06 618.341 1202.42 622.782 1195.99 623.139C771.817 646.652 578.147 689.9 274.905 624.242C270.089 623.199 266.006 619.777 264.237 615.178C224.321 511.436 247.171 459.669 300.329 396Z" fill="#B0B0B0" fill-opacity="0.4"/>
<path d="M283.261 265L1163.37 265.961C1163.37 436.91 1212.05 517.252 1166.62 581.363C1164.6 584.22 1161.44 586.139 1158.01 586.859C835.885 654.578 618.39 624.835 291.733 586.714C286.517 586.106 281.896 582.802 279.914 577.939C244.505 491.065 283.261 426.54 283.261 265Z" fill="#FFC48D"/>
<path d="M285 264.5C330.713 444.371 779.847 358.587 754.04 608.75C753.732 611.734 752.57 614.685 750.309 616.656C688.647 670.423 331.072 638.877 284.899 583.628C284.244 582.845 283.776 582.027 283.348 581.1C249.788 508.519 272.082 431.923 285 264.5Z" fill="#FFC48D"/>
<path d="M400.135 134.163C409.37 124.019 424.263 118 440.13 118H1006.07C1021.76 118 1036.5 123.881 1045.76 133.832L1161.81 258.499C1169.75 267.035 1161.96 279.047 1148.5 279H300.349C287.041 278.953 279.346 267.118 287.091 258.609L400.135 134.163Z" fill="#FFD0A5"/>
<path d="M349.895 190H1096.63L1112 206L337 204L349.895 190Z" fill="#626262"/>
<path d="M760.866 528.098C801.771 403.238 1039.5 368.421 1094.46 528.098C1131.1 634.53 719.961 652.958 760.866 528.098Z" fill="#FFCFA3"/>
<path d="M796.242 562.521C828.245 490.797 1014.24 470.797 1057.24 562.521C1085.9 623.659 764.239 634.245 796.242 562.521Z" fill="white"/>
<path d="M881.999 611.001C871.499 548 988.5 550.002 958.001 610C927.038 612.934 912.653 612.006 881.999 611.001Z" fill="black" stroke="black"/>
<path d="M406.866 557.098C447.771 432.238 685.504 397.421 740.464 557.098C777.097 663.53 365.961 681.958 406.866 557.098Z" fill="#FFCFA3"/>
<path d="M442.242 591.521C474.245 519.797 660.243 499.797 703.242 591.521C731.903 652.659 410.239 663.245 442.242 591.521Z" fill="white"/>
<path d="M527.999 640.001C517.499 577 634.5 579.002 604.001 639C573.038 641.934 558.653 641.006 527.999 640.001Z" fill="black" stroke="black"/>
<path d="M598.682 763V679.574H632.902C636.756 679.574 640.296 679.928 643.522 680.636C646.826 681.265 649.658 682.406 652.018 684.058C654.456 685.71 656.344 687.913 657.682 690.666C659.019 693.419 659.688 696.841 659.688 700.932C659.688 704.708 658.822 708.169 657.092 711.316C655.361 714.384 652.804 716.705 649.422 718.278C653.984 719.458 657.485 721.779 659.924 725.24C662.362 728.623 663.582 733.028 663.582 738.456C663.582 743.255 662.677 747.267 660.868 750.492C659.137 753.639 656.698 756.156 653.552 758.044C650.484 759.853 646.944 761.151 642.932 761.938C638.92 762.646 634.672 763 630.188 763H598.682ZM613.432 749.548H631.014C633.216 749.548 635.38 749.391 637.504 749.076C639.628 748.761 641.555 748.211 643.286 747.424C645.016 746.637 646.354 745.497 647.298 744.002C648.32 742.429 648.832 740.423 648.832 737.984C648.832 735.781 648.438 733.972 647.652 732.556C646.865 731.14 645.764 730.039 644.348 729.252C643.01 728.387 641.398 727.797 639.51 727.482C637.622 727.089 635.655 726.892 633.61 726.892H613.432V749.548ZM613.432 714.502H629.008C631.446 714.502 633.649 714.266 635.616 713.794C637.582 713.322 639.274 712.614 640.69 711.67C642.106 710.726 643.207 709.546 643.994 708.13C644.78 706.635 645.174 704.865 645.174 702.82C645.174 700.067 644.544 698.021 643.286 696.684C642.106 695.268 640.454 694.324 638.33 693.852C636.206 693.301 633.846 693.026 631.25 693.026H613.432V714.502ZM673.015 763V700.814H687.529V722.054H697.441C700.981 722.054 704.246 722.369 707.235 722.998C710.303 723.627 712.939 724.689 715.141 726.184C717.344 727.679 719.035 729.724 720.215 732.32C721.474 734.837 722.103 738.023 722.103 741.878C722.103 745.733 721.395 748.997 719.979 751.672C718.642 754.347 716.793 756.549 714.433 758.28C712.073 759.932 709.32 761.151 706.173 761.938C703.105 762.646 699.841 763 696.379 763H673.015ZM687.529 750.492H691.777C693.98 750.492 696.025 750.413 697.913 750.256C699.88 750.099 701.571 749.784 702.987 749.312C704.482 748.761 705.662 747.935 706.527 746.834C707.393 745.733 707.825 744.238 707.825 742.35C707.825 740.541 707.471 739.125 706.763 738.102C706.055 737.001 705.111 736.175 703.931 735.624C702.83 734.995 701.571 734.601 700.155 734.444C698.739 734.287 697.245 734.208 695.671 734.208H687.529V750.492ZM730.009 763V700.814H744.405V763H730.009ZM786.411 763V700.814H800.807V725.83H826.767V700.814H841.163V763H826.767V738.692H800.807V763H786.411ZM880.578 763.826C874.128 763.826 868.621 762.489 864.058 759.814C859.574 757.139 856.152 753.442 853.792 748.722C851.511 743.923 850.37 738.377 850.37 732.084C850.37 725.791 851.55 720.245 853.91 715.446C856.349 710.569 859.81 706.753 864.294 704C868.857 701.247 874.324 699.87 880.696 699.87C885.259 699.87 889.31 700.696 892.85 702.348C896.39 703.921 899.38 706.163 901.818 709.074C904.257 711.906 906.066 715.21 907.246 718.986C908.426 722.683 908.977 726.656 908.898 730.904C908.898 731.848 908.859 732.792 908.78 733.736C908.702 734.601 908.584 735.545 908.426 736.568H864.766C865.002 739.321 865.71 741.839 866.89 744.12C868.149 746.401 869.88 748.211 872.082 749.548C874.364 750.885 877.196 751.554 880.578 751.554C882.545 751.554 884.433 751.318 886.242 750.846C888.052 750.295 889.625 749.509 890.962 748.486C892.378 747.463 893.322 746.165 893.794 744.592H908.19C907.168 749.076 905.28 752.734 902.526 755.566C899.773 758.398 896.469 760.483 892.614 761.82C888.838 763.157 884.826 763.826 880.578 763.826ZM865.002 725.83H894.974C894.974 723.234 894.384 720.874 893.204 718.75C892.024 716.626 890.333 714.974 888.13 713.794C886.006 712.535 883.41 711.906 880.342 711.906C877.038 711.906 874.285 712.575 872.082 713.912C869.88 715.249 868.188 716.98 867.008 719.104C865.828 721.228 865.16 723.47 865.002 725.83ZM342.735 885.826C339.981 885.826 337.307 885.433 334.711 884.646C332.193 883.859 329.912 882.719 327.867 881.224C325.821 879.651 324.209 877.723 323.029 875.442C321.849 873.082 321.259 870.329 321.259 867.182C321.259 863.17 322.045 859.905 323.619 857.388C325.192 854.792 327.316 852.825 329.991 851.488C332.744 850.151 335.851 849.246 339.313 848.774C342.774 848.223 346.393 847.948 350.169 847.948H362.323C362.323 845.195 361.89 842.835 361.025 840.868C360.159 838.823 358.783 837.21 356.895 836.03C355.085 834.85 352.725 834.26 349.815 834.26C347.927 834.26 346.157 834.496 344.505 834.968C342.931 835.361 341.555 836.03 340.375 836.974C339.273 837.839 338.487 838.98 338.015 840.396H323.265C323.815 837.171 324.917 834.417 326.569 832.136C328.299 829.776 330.384 827.849 332.823 826.354C335.34 824.859 338.093 823.758 341.083 823.05C344.072 822.263 347.101 821.87 350.169 821.87C356.226 821.87 361.143 823.05 364.919 825.41C368.773 827.77 371.605 831.153 373.415 835.558C375.224 839.963 376.129 845.273 376.129 851.488V885H363.385L363.031 877.448C361.3 879.651 359.294 881.381 357.013 882.64C354.81 883.82 352.489 884.646 350.051 885.118C347.612 885.59 345.173 885.826 342.735 885.826ZM346.039 874.144C349.264 874.144 352.096 873.554 354.535 872.374C356.973 871.194 358.901 869.542 360.317 867.418C361.733 865.294 362.441 862.816 362.441 859.984V858.096H351.231C349.185 858.096 347.219 858.175 345.331 858.332C343.443 858.411 341.751 858.725 340.257 859.276C338.841 859.748 337.7 860.495 336.835 861.518C335.969 862.541 335.537 863.996 335.537 865.884C335.537 867.693 336.009 869.227 336.953 870.486C337.897 871.666 339.155 872.571 340.729 873.2C342.381 873.829 344.151 874.144 346.039 874.144ZM382.439 903.054V872.256C384.484 872.256 386.176 871.745 387.513 870.722C388.85 869.621 389.912 868.165 390.699 866.356C391.564 864.547 392.233 862.58 392.705 860.456C393.177 858.253 393.531 856.051 393.767 853.848C394.239 850.308 394.514 846.689 394.593 842.992C394.75 839.216 394.829 835.991 394.829 833.316C394.908 831.585 394.947 829.855 394.947 828.124C394.947 826.315 394.947 824.545 394.947 822.814H442.973V872.256H450.997V903.054H436.837V885H396.599V903.054H382.439ZM402.971 872.256H428.577V835.558H407.927C407.848 838.469 407.77 841.615 407.691 844.998C407.612 848.302 407.455 851.449 407.219 854.438C407.14 856.169 406.944 858.096 406.629 860.22C406.393 862.344 406 864.429 405.449 866.474C404.898 868.519 404.072 870.447 402.971 872.256ZM457.52 885V822.814H475.102L493.274 851.134L511.092 822.814H528.438V885H514.042V841.104L495.162 871.312H490.914L471.798 840.986V885H457.52ZM539.973 885V822.814H554.369V863.288C554.841 862.423 555.431 861.479 556.139 860.456C556.925 859.433 557.594 858.607 558.145 857.978L584.813 822.814H597.557V885H583.279V844.998C582.649 846.021 581.981 847.004 581.273 847.948C580.643 848.813 580.014 849.639 579.385 850.426L553.071 885H539.973ZM609.173 885V822.814H623.569V847.83H649.529V822.814H663.925V885H649.529V860.692H623.569V885H609.173ZM675.493 885V822.814H689.889V863.288C690.361 862.423 690.951 861.479 691.659 860.456C692.446 859.433 693.114 858.607 693.665 857.978L720.333 822.814H733.077V885H718.799V844.998C718.17 846.021 717.501 847.004 716.793 847.948C716.164 848.813 715.534 849.639 714.905 850.426L688.591 885H675.493ZM772.069 885.826C765.619 885.826 760.191 884.528 755.785 881.932C751.38 879.257 748.037 875.521 745.755 870.722C743.474 865.923 742.333 860.377 742.333 854.084C742.333 847.791 743.513 842.245 745.873 837.446C748.233 832.569 751.695 828.753 756.257 826C760.82 823.247 766.366 821.87 772.895 821.87C777.694 821.87 781.942 822.696 785.639 824.348C789.415 826 792.444 828.439 794.725 831.664C797.085 834.811 798.58 838.744 799.209 843.464H785.049C784.105 840.475 782.532 838.311 780.329 836.974C778.205 835.558 775.609 834.85 772.541 834.85C768.608 834.85 765.461 835.833 763.101 837.8C760.82 839.688 759.168 842.087 758.145 844.998C757.123 847.909 756.611 850.937 756.611 854.084C756.611 857.388 757.162 860.495 758.263 863.406C759.365 866.238 761.056 868.519 763.337 870.25C765.697 871.981 768.726 872.846 772.423 872.846C775.413 872.846 778.087 872.177 780.447 870.84C782.886 869.503 784.459 867.339 785.167 864.35H799.799C799.249 869.149 797.636 873.161 794.961 876.386C792.365 879.533 789.061 881.893 785.049 883.466C781.037 885.039 776.711 885.826 772.069 885.826ZM822.88 885V835.558H802.348V822.814H857.926V835.558H837.276V885H822.88ZM863.62 907.892V822.814H877.072L877.78 831.31C880.219 828.006 883.208 825.607 886.748 824.112C890.288 822.617 894.025 821.87 897.958 821.87C903.937 821.87 908.932 823.286 912.944 826.118C916.956 828.95 919.945 832.805 921.912 837.682C923.879 842.481 924.862 847.909 924.862 853.966C924.862 860.023 923.839 865.451 921.794 870.25C919.827 875.049 916.759 878.864 912.59 881.696C908.499 884.449 903.229 885.826 896.778 885.826C893.789 885.826 891.114 885.511 888.754 884.882C886.394 884.174 884.309 883.269 882.5 882.168C880.769 880.988 879.275 879.729 878.016 878.392V907.892H863.62ZM894.772 872.846C898.784 872.846 901.931 871.981 904.212 870.25C906.493 868.441 908.145 866.12 909.168 863.288C910.191 860.377 910.702 857.309 910.702 854.084C910.702 850.701 910.151 847.555 909.05 844.644C908.027 841.733 906.336 839.373 903.976 837.564C901.616 835.755 898.469 834.85 894.536 834.85C890.917 834.85 887.849 835.755 885.332 837.564C882.893 839.295 881.045 841.615 879.786 844.526C878.527 847.437 877.898 850.583 877.898 853.966C877.898 857.427 878.488 860.613 879.668 863.524C880.848 866.356 882.697 868.637 885.214 870.368C887.731 872.02 890.917 872.846 894.772 872.846ZM952.979 885.826C950.226 885.826 947.551 885.433 944.955 884.646C942.438 883.859 940.156 882.719 938.111 881.224C936.066 879.651 934.453 877.723 933.273 875.442C932.093 873.082 931.503 870.329 931.503 867.182C931.503 863.17 932.29 859.905 933.863 857.388C935.436 854.792 937.56 852.825 940.235 851.488C942.988 850.151 946.096 849.246 949.557 848.774C953.018 848.223 956.637 847.948 960.413 847.948H972.567C972.567 845.195 972.134 842.835 971.269 840.868C970.404 838.823 969.027 837.21 967.139 836.03C965.33 834.85 962.97 834.26 960.059 834.26C958.171 834.26 956.401 834.496 954.749 834.968C953.176 835.361 951.799 836.03 950.619 836.974C949.518 837.839 948.731 838.98 948.259 840.396H933.509C934.06 837.171 935.161 834.417 936.813 832.136C938.544 829.776 940.628 827.849 943.067 826.354C945.584 824.859 948.338 823.758 951.327 823.05C954.316 822.263 957.345 821.87 960.413 821.87C966.47 821.87 971.387 823.05 975.163 825.41C979.018 827.77 981.85 831.153 983.659 835.558C985.468 839.963 986.373 845.273 986.373 851.488V885H973.629L973.275 877.448C971.544 879.651 969.538 881.381 967.257 882.64C965.054 883.82 962.734 884.646 960.295 885.118C957.856 885.59 955.418 885.826 952.979 885.826ZM956.283 874.144C959.508 874.144 962.34 873.554 964.779 872.374C967.218 871.194 969.145 869.542 970.561 867.418C971.977 865.294 972.685 862.816 972.685 859.984V858.096H961.475C959.43 858.096 957.463 858.175 955.575 858.332C953.687 858.411 951.996 858.725 950.501 859.276C949.085 859.748 947.944 860.495 947.079 861.518C946.214 862.541 945.781 863.996 945.781 865.884C945.781 867.693 946.253 869.227 947.197 870.486C948.141 871.666 949.4 872.571 950.973 873.2C952.625 873.829 954.395 874.144 956.283 874.144ZM1012.39 885V835.558H991.857V822.814H1047.44V835.558H1026.79V885H1012.39ZM1081.57 885.826C1075.2 885.826 1069.69 884.528 1065.05 881.932C1060.49 879.336 1056.95 875.639 1054.43 870.84C1051.99 866.041 1050.77 860.417 1050.77 853.966C1050.77 847.437 1051.99 841.812 1054.43 837.092C1056.95 832.293 1060.49 828.557 1065.05 825.882C1069.69 823.207 1075.2 821.87 1081.57 821.87C1087.86 821.87 1093.29 823.207 1097.85 825.882C1102.41 828.557 1105.92 832.333 1108.35 837.21C1110.79 842.009 1112.01 847.673 1112.01 854.202C1112.01 860.574 1110.79 866.159 1108.35 870.958C1105.99 875.678 1102.53 879.336 1097.97 881.932C1093.41 884.528 1087.94 885.826 1081.57 885.826ZM1081.45 872.728C1085.38 872.728 1088.53 871.863 1090.89 870.132C1093.33 868.401 1095.1 866.12 1096.2 863.288C1097.3 860.456 1097.85 857.388 1097.85 854.084C1097.85 850.78 1097.3 847.673 1096.2 844.762C1095.1 841.851 1093.33 839.531 1090.89 837.8C1088.53 835.991 1085.38 835.086 1081.45 835.086C1077.52 835.086 1074.33 835.991 1071.89 837.8C1069.45 839.531 1067.68 841.851 1066.58 844.762C1065.48 847.673 1064.93 850.78 1064.93 854.084C1064.93 857.467 1065.48 860.574 1066.58 863.406C1067.68 866.238 1069.45 868.519 1071.89 870.25C1074.33 871.902 1077.52 872.728 1081.45 872.728ZM1121.18 907.892V822.814H1134.63L1135.34 831.31C1137.78 828.006 1140.77 825.607 1144.31 824.112C1147.85 822.617 1151.58 821.87 1155.52 821.87C1161.49 821.87 1166.49 823.286 1170.5 826.118C1174.51 828.95 1177.5 832.805 1179.47 837.682C1181.44 842.481 1182.42 847.909 1182.42 853.966C1182.42 860.023 1181.4 865.451 1179.35 870.25C1177.39 875.049 1174.32 878.864 1170.15 881.696C1166.06 884.449 1160.79 885.826 1154.34 885.826C1151.35 885.826 1148.67 885.511 1146.31 884.882C1143.95 884.174 1141.87 883.269 1140.06 882.168C1138.33 880.988 1136.83 879.729 1135.57 878.392V907.892H1121.18ZM1152.33 872.846C1156.34 872.846 1159.49 871.981 1161.77 870.25C1164.05 868.441 1165.7 866.12 1166.73 863.288C1167.75 860.377 1168.26 857.309 1168.26 854.084C1168.26 850.701 1167.71 847.555 1166.61 844.644C1165.59 841.733 1163.89 839.373 1161.53 837.564C1159.17 835.755 1156.03 834.85 1152.09 834.85C1148.48 834.85 1145.41 835.755 1142.89 837.564C1140.45 839.295 1138.6 841.615 1137.34 844.526C1136.09 847.437 1135.46 850.583 1135.46 853.966C1135.46 857.427 1136.05 860.613 1137.23 863.524C1138.41 866.356 1140.25 868.637 1142.77 870.368C1145.29 872.02 1148.48 872.846 1152.33 872.846Z" fill="black"/>
<path d="M1008.38 400.268C1004.54 400.268 1000.82 399.72 997.203 398.625C993.698 397.529 990.52 395.941 987.672 393.859C984.823 391.668 982.577 388.984 980.934 385.806C979.29 382.52 978.469 378.685 978.469 374.303C978.469 368.715 979.564 364.168 981.756 360.662C983.947 357.047 986.905 354.308 990.63 352.445C994.464 350.583 998.792 349.323 1003.61 348.666C1008.43 347.899 1013.47 347.515 1018.73 347.515H1035.66C1035.66 343.681 1035.06 340.394 1033.85 337.655C1032.65 334.806 1030.73 332.56 1028.1 330.917C1025.58 329.274 1022.29 328.452 1018.24 328.452C1015.61 328.452 1013.14 328.781 1010.84 329.438C1008.65 329.986 1006.74 330.917 1005.09 332.232C1003.56 333.437 1002.46 335.025 1001.8 336.998H981.263C982.029 332.506 983.563 328.671 985.864 325.494C988.274 322.207 991.178 319.523 994.574 317.441C998.08 315.36 1001.91 313.826 1006.08 312.84C1010.24 311.744 1014.46 311.196 1018.73 311.196C1027.17 311.196 1034.02 312.84 1039.27 316.126C1044.64 319.413 1048.59 324.124 1051.11 330.26C1053.63 336.395 1054.89 343.79 1054.89 352.445V399.118H1037.14L1036.64 388.6C1034.23 391.668 1031.44 394.078 1028.26 395.831C1025.2 397.474 1021.96 398.625 1018.57 399.282C1015.17 399.94 1011.77 400.268 1008.38 400.268ZM1012.98 383.999C1017.47 383.999 1021.42 383.177 1024.81 381.534C1028.21 379.89 1030.89 377.589 1032.87 374.631C1034.84 371.673 1035.82 368.222 1035.82 364.278V361.648H1020.21C1017.36 361.648 1014.62 361.758 1011.99 361.977C1009.36 362.087 1007.01 362.525 1004.93 363.292C1002.96 363.949 1001.37 364.99 1000.16 366.414C998.956 367.839 998.354 369.865 998.354 372.495C998.354 375.015 999.011 377.151 1000.33 378.904C1001.64 380.548 1003.39 381.807 1005.58 382.684C1007.89 383.56 1010.35 383.999 1012.98 383.999Z" fill="black"/>
<path d="M895.482 399.118V312.511H915.532V347.186H929.336L951.851 312.511H974.53L946.756 353.431L975.516 399.118H952.344L930.815 364.935H915.532V399.118H895.482Z" fill="black"/>
<path d="M840.806 400.269C834.89 400.269 829.631 399.392 825.03 397.639C820.428 395.886 816.429 393.476 813.033 390.408C809.746 387.231 807.007 383.561 804.816 379.397C802.625 375.125 800.981 370.468 799.886 365.429C798.79 360.389 798.242 355.075 798.242 349.488C798.242 341.161 798.571 333.547 799.228 326.644C799.995 319.633 801.419 313.443 803.501 308.074C805.692 302.706 808.924 298.159 813.197 294.434C817.579 290.709 823.277 287.915 830.288 286.053C834.671 284.738 839.163 283.752 843.764 283.095C848.366 282.328 853.241 281.615 858.39 280.958C862.115 280.52 865.128 280.136 867.429 279.808C869.839 279.479 871.866 279.15 873.51 278.822C875.263 278.493 876.851 278.219 878.275 278V297.885C877.18 298.323 875.975 298.652 874.66 298.871C873.455 299.09 872.14 299.309 870.716 299.528C869.292 299.638 867.867 299.748 866.443 299.857C865.019 299.967 863.594 300.131 862.17 300.35C860.855 300.46 859.541 300.569 858.226 300.679C853.734 301.117 849.187 301.555 844.586 301.994C839.984 302.432 835.712 303.363 831.767 304.787C827.823 306.212 824.591 308.677 822.071 312.183C820.976 313.607 819.99 315.415 819.113 317.606C818.346 319.797 817.744 322.098 817.306 324.508C816.867 326.809 816.648 329.164 816.648 331.575C819.058 328.069 821.907 325.33 825.194 323.358C828.481 321.386 831.932 319.961 835.547 319.085C839.272 318.208 842.723 317.77 845.901 317.77C853.789 317.77 860.472 319.523 865.95 323.029C871.428 326.425 875.591 331.136 878.44 337.162C881.288 343.078 882.713 349.926 882.713 357.705C882.713 366.031 881.014 373.426 877.618 379.89C874.222 386.245 869.401 391.23 863.156 394.845C856.911 398.461 849.461 400.269 840.806 400.269ZM840.97 382.52C845.791 382.52 849.79 381.424 852.967 379.233C856.254 376.932 858.719 373.974 860.362 370.359C862.006 366.743 862.828 362.854 862.828 358.691C862.828 354.527 862.006 350.748 860.362 347.351C858.719 343.955 856.309 341.216 853.132 339.134C849.954 337.053 846.01 336.012 841.299 336.012C836.698 336.012 832.753 337.107 829.467 339.299C826.18 341.38 823.66 344.174 821.907 347.68C820.154 351.076 819.278 354.801 819.278 358.855C819.278 362.909 820.045 366.743 821.578 370.359C823.222 373.974 825.632 376.932 828.809 379.233C831.987 381.424 836.04 382.52 840.97 382.52Z" fill="black"/>
<path d="M744.102 400.268C735.227 400.268 727.558 398.46 721.094 394.845C714.74 391.23 709.809 386.08 706.303 379.397C702.907 372.714 701.209 364.88 701.209 355.897C701.209 346.803 702.907 338.97 706.303 332.396C709.809 325.713 714.74 320.509 721.094 316.784C727.558 313.059 735.227 311.196 744.102 311.196C752.866 311.196 760.426 313.059 766.78 316.784C773.135 320.509 778.01 325.768 781.407 332.56C784.803 339.244 786.501 347.132 786.501 356.225C786.501 365.1 784.803 372.878 781.407 379.561C778.12 386.135 773.299 391.23 766.945 394.845C760.59 398.46 752.976 400.268 744.102 400.268ZM743.937 382.027C749.415 382.027 753.798 380.821 757.084 378.411C760.481 376.001 762.946 372.824 764.48 368.879C766.013 364.935 766.78 360.662 766.78 356.061C766.78 351.459 766.013 347.132 764.48 343.078C762.946 339.024 760.481 335.792 757.084 333.382C753.798 330.862 749.415 329.602 743.937 329.602C738.459 329.602 734.022 330.862 730.626 333.382C727.229 335.792 724.764 339.024 723.23 343.078C721.697 347.132 720.93 351.459 720.93 356.061C720.93 360.772 721.697 365.1 723.23 369.044C724.764 372.988 727.229 376.165 730.626 378.575C734.022 380.876 738.459 382.027 743.937 382.027Z" fill="black"/>
<path d="M606.996 431V312.511H625.731L626.717 324.343C630.113 319.742 634.276 316.4 639.207 314.319C644.137 312.237 649.341 311.196 654.819 311.196C663.145 311.196 670.102 313.168 675.69 317.113C681.278 321.057 685.441 326.425 688.18 333.218C690.919 339.901 692.288 347.461 692.288 355.897C692.288 364.333 690.864 371.892 688.015 378.575C685.276 385.259 681.004 390.572 675.197 394.516C669.5 398.351 662.159 400.268 653.175 400.268C649.012 400.268 645.287 399.83 642 398.954C638.714 397.967 635.81 396.708 633.29 395.174C630.88 393.53 628.798 391.777 627.046 389.915V431H606.996ZM650.382 382.191C655.969 382.191 660.352 380.986 663.529 378.575C666.706 376.056 669.007 372.824 670.431 368.879C671.855 364.826 672.568 360.553 672.568 356.061C672.568 351.35 671.801 346.967 670.267 342.914C668.842 338.86 666.487 335.573 663.2 333.053C659.913 330.534 655.531 329.274 650.053 329.274C645.013 329.274 640.74 330.534 637.235 333.053C633.838 335.464 631.264 338.696 629.511 342.749C627.758 346.803 626.881 351.186 626.881 355.897C626.881 360.717 627.703 365.154 629.346 369.208C630.99 373.152 633.564 376.329 637.07 378.74C640.576 381.041 645.013 382.191 650.382 382.191Z" fill="black"/>
<path d="M551.832 400.268C542.958 400.268 535.289 398.46 528.825 394.845C522.47 391.23 517.54 386.08 514.034 379.397C510.638 372.714 508.939 364.88 508.939 355.897C508.939 346.803 510.638 338.97 514.034 332.396C517.54 325.713 522.47 320.509 528.825 316.784C535.289 313.059 542.958 311.196 551.832 311.196C560.597 311.196 568.156 313.059 574.511 316.784C580.865 320.509 585.741 325.768 589.137 332.56C592.533 339.244 594.232 347.132 594.232 356.225C594.232 365.1 592.533 372.878 589.137 379.561C585.85 386.135 581.03 391.23 574.675 394.845C568.321 398.46 560.706 400.268 551.832 400.268ZM551.668 382.027C557.146 382.027 561.528 380.821 564.815 378.411C568.211 376.001 570.676 372.824 572.21 368.879C573.744 364.935 574.511 360.662 574.511 356.061C574.511 351.459 573.744 347.132 572.21 343.078C570.676 339.024 568.211 335.792 564.815 333.382C561.528 330.862 557.146 329.602 551.668 329.602C546.19 329.602 541.753 330.862 538.356 333.382C534.96 335.792 532.495 339.024 530.961 343.078C529.427 347.132 528.66 351.459 528.66 356.061C528.66 360.772 529.427 365.1 530.961 369.044C532.495 372.988 534.96 376.165 538.356 378.575C541.753 380.876 546.19 382.027 551.668 382.027Z" fill="black"/>
<path d="M414 399.118V282.93H434.542V332.889H451.305L484.009 282.93H507.345L468.561 339.791L507.509 399.118H483.516L452.291 351.624H434.542V399.118H414Z" fill="black"/>
</svg>
