<svg width="1253" height="582" viewBox="0 0 1253 582" fill="none" xmlns="http://www.w3.org/2000/svg">
<path d="M0 144.696L1253 148.708V567.051C1253 575.307 1246.31 582 1238.05 582H14.9489C6.69282 582 0 575.307 0 567.051V144.696Z" fill="#FFC48D"/>
<path d="M165.173 16.1185C178.307 6.00197 199.488 0 222.056 0H1026.97C1049.27 0 1070.24 5.86461 1083.42 15.7877L1248.46 140.108C1259.76 148.621 1248.67 160.599 1229.54 160.552H23.2521C4.32543 160.505 -6.61909 148.702 4.39613 140.218L165.173 16.1185Z" fill="#FFD0A5"/>
<path d="M93.315 72.2483H1155.75L1177.62 88.3035L74.9678 86.2966L93.315 72.2483Z" fill="#626262"/>
<path d="M1105.4 564.103C1098.74 564.103 1092.27 563.152 1085.99 561.249C1079.9 559.346 1074.38 556.586 1069.43 552.97C1064.49 549.164 1060.58 544.502 1057.73 538.983C1054.87 533.274 1053.45 526.613 1053.45 519.001C1053.45 509.295 1055.35 501.397 1059.16 495.307C1062.96 489.027 1068.1 484.27 1074.57 481.034C1081.23 477.799 1088.75 475.611 1097.12 474.469C1105.5 473.137 1114.25 472.471 1123.38 472.471H1152.79C1152.79 465.81 1151.74 460.101 1149.65 455.343C1147.55 450.395 1144.22 446.494 1139.66 443.639C1135.28 440.785 1129.57 439.357 1122.53 439.357C1117.96 439.357 1113.68 439.928 1109.68 441.07C1105.88 442.021 1102.55 443.639 1099.69 445.923C1097.03 448.016 1095.12 450.776 1093.98 454.201H1058.3C1059.63 446.399 1062.3 439.738 1066.29 434.219C1070.48 428.51 1075.52 423.847 1081.42 420.231C1087.51 416.616 1094.17 413.951 1101.4 412.239C1108.64 410.335 1115.96 409.384 1123.38 409.384C1138.04 409.384 1149.93 412.239 1159.07 417.948C1168.39 423.657 1175.24 431.84 1179.62 442.497C1184 453.154 1186.19 466 1186.19 481.034V562.105H1155.36L1154.5 543.836C1150.31 549.164 1145.46 553.351 1139.94 556.396C1134.61 559.25 1129 561.249 1123.1 562.39C1117.2 563.532 1111.3 564.103 1105.4 564.103ZM1113.39 535.843C1121.2 535.843 1128.05 534.415 1133.95 531.561C1139.85 528.706 1144.51 524.71 1147.93 519.571C1151.36 514.433 1153.07 508.439 1153.07 501.587V497.02H1125.95C1121.01 497.02 1116.25 497.21 1111.68 497.591C1107.11 497.781 1103.02 498.543 1099.41 499.875C1095.98 501.017 1093.22 502.824 1091.13 505.298C1089.03 507.772 1087.99 511.293 1087.99 515.86C1087.99 520.238 1089.13 523.949 1091.41 526.993C1093.7 529.848 1096.74 532.037 1100.55 533.559C1104.54 535.081 1108.83 535.843 1113.39 535.843Z" fill="black"/>
<path d="M909.299 562.105V411.668H944.125V471.9H968.104L1007.21 411.668H1046.61L998.362 482.747L1048.32 562.105H1008.07L970.673 502.729H944.125V562.105H909.299Z" fill="black"/>
<path d="M814.326 564.103C804.049 564.103 794.914 562.581 786.922 559.536C778.929 556.491 771.983 552.304 766.083 546.976C760.374 541.457 755.616 535.081 751.81 527.85C748.004 520.428 745.149 512.34 743.246 503.586C741.343 494.832 740.392 485.602 740.392 475.896C740.392 461.433 740.963 448.206 742.104 436.217C743.437 424.037 745.91 413.285 749.526 403.96C753.332 394.635 758.947 386.737 766.368 380.267C773.981 373.797 783.877 368.944 796.056 365.708C803.669 363.425 811.471 361.712 819.464 360.57C827.457 359.238 835.926 358.001 844.87 356.859C851.34 356.098 856.574 355.432 860.57 354.861C864.757 354.29 868.278 353.719 871.132 353.148C874.177 352.577 876.937 352.102 879.411 351.721V386.262C877.508 387.023 875.414 387.594 873.13 387.974C871.037 388.355 868.753 388.736 866.279 389.116C863.805 389.307 861.331 389.497 858.857 389.687C856.383 389.877 853.91 390.163 851.436 390.544C849.152 390.734 846.868 390.924 844.585 391.114C836.782 391.876 828.884 392.637 820.891 393.398C812.898 394.159 805.476 395.777 798.625 398.251C791.774 400.725 786.16 405.007 781.783 411.097C779.88 413.571 778.167 416.711 776.645 420.517C775.313 424.323 774.266 428.319 773.505 432.506C772.744 436.503 772.363 440.594 772.363 444.781C776.55 438.691 781.498 433.933 787.207 430.508C792.916 427.082 798.911 424.608 805.191 423.086C811.661 421.563 817.656 420.802 823.175 420.802C836.877 420.802 848.486 423.847 858.001 429.937C867.516 435.836 874.748 444.02 879.696 454.487C884.644 464.763 887.118 476.657 887.118 490.169C887.118 504.632 884.168 517.478 878.269 528.706C872.369 539.744 863.996 548.403 853.148 554.683C842.301 560.963 829.36 564.103 814.326 564.103ZM814.611 533.273C822.985 533.273 829.931 531.37 835.45 527.564C841.159 523.568 845.441 518.43 848.295 512.149C851.15 505.869 852.577 499.113 852.577 491.882C852.577 484.65 851.15 478.085 848.295 472.185C845.441 466.286 841.254 461.528 835.735 457.912C830.216 454.296 823.365 452.488 815.182 452.488C807.189 452.488 800.338 454.391 794.629 458.198C788.92 461.813 784.543 466.666 781.498 472.756C778.453 478.655 776.93 485.126 776.93 492.167C776.93 499.209 778.263 505.869 780.927 512.149C783.782 518.43 787.968 523.568 793.487 527.564C799.006 531.37 806.047 533.273 814.611 533.273Z" fill="black"/>
<path d="M646.348 564.103C630.933 564.103 617.612 560.963 606.383 554.683C595.346 548.403 586.782 539.459 580.692 527.85C574.793 516.241 571.843 502.634 571.843 487.029C571.843 471.234 574.793 457.627 580.692 446.208C586.782 434.6 595.346 425.56 606.383 419.09C617.612 412.619 630.933 409.384 646.348 409.384C661.572 409.384 674.703 412.619 685.741 419.09C696.779 425.56 705.248 434.695 711.147 446.494C717.047 458.102 719.997 471.804 719.997 487.6C719.997 503.015 717.047 516.527 711.147 528.135C705.438 539.554 697.065 548.403 686.027 554.683C674.989 560.963 661.763 564.103 646.348 564.103ZM646.062 532.417C655.578 532.417 663.19 530.324 668.899 526.137C674.799 521.95 679.081 516.431 681.745 509.58C684.409 502.729 685.741 495.307 685.741 487.314C685.741 479.322 684.409 471.804 681.745 464.763C679.081 457.722 674.799 452.108 668.899 447.921C663.19 443.544 655.578 441.355 646.062 441.355C636.547 441.355 628.84 443.544 622.94 447.921C617.041 452.108 612.759 457.722 610.094 464.763C607.43 471.804 606.098 479.322 606.098 487.314C606.098 495.498 607.43 503.015 610.094 509.866C612.759 516.717 617.041 522.236 622.94 526.423C628.84 530.419 636.547 532.417 646.062 532.417Z" fill="black"/>
<path d="M408.194 617.484V411.668H440.737L442.45 432.221C448.349 424.228 455.581 418.423 464.145 414.808C472.708 411.192 481.748 409.384 491.263 409.384C505.727 409.384 517.811 412.809 527.517 419.66C537.222 426.512 544.454 435.837 549.212 447.636C553.969 459.244 556.348 472.375 556.348 487.029C556.348 501.683 553.874 514.814 548.926 526.423C544.168 538.031 536.746 547.261 526.66 554.112C516.764 560.773 504.014 564.103 488.409 564.103C481.177 564.103 474.707 563.342 468.997 561.82C463.288 560.107 458.245 557.918 453.868 555.254C449.681 552.399 446.065 549.354 443.02 546.119V617.484H408.194ZM483.556 532.703C493.261 532.703 500.874 530.609 506.393 526.423C511.911 522.045 515.908 516.431 518.382 509.58C520.856 502.539 522.093 495.117 522.093 487.314C522.093 479.131 520.761 471.519 518.096 464.478C515.622 457.436 511.531 451.727 505.822 447.35C500.112 442.973 492.5 440.785 482.985 440.785C474.231 440.785 466.809 442.973 460.719 447.35C454.819 451.537 450.347 457.151 447.302 464.192C444.257 471.234 442.735 478.846 442.735 487.029C442.735 495.403 444.162 503.11 447.017 510.151C449.872 517.002 454.344 522.521 460.434 526.708C466.523 530.704 474.231 532.703 483.556 532.703Z" fill="black"/>
<path d="M312.371 564.103C296.956 564.103 283.635 560.963 272.407 554.683C261.369 548.403 252.805 539.459 246.715 527.85C240.816 516.241 237.866 502.634 237.866 487.029C237.866 471.234 240.816 457.627 246.715 446.208C252.805 434.6 261.369 425.56 272.407 419.09C283.635 412.619 296.956 409.384 312.371 409.384C327.596 409.384 340.727 412.619 351.765 419.09C362.803 425.56 371.271 434.695 377.171 446.494C383.07 458.102 386.02 471.804 386.02 487.6C386.02 503.015 383.07 516.527 377.171 528.135C371.461 539.554 363.088 548.403 352.05 554.683C341.012 560.963 327.786 564.103 312.371 564.103ZM312.086 532.417C321.601 532.417 329.213 530.324 334.923 526.137C340.822 521.95 345.104 516.431 347.768 509.58C350.433 502.729 351.765 495.307 351.765 487.314C351.765 479.322 350.433 471.804 347.768 464.763C345.104 457.722 340.822 452.108 334.923 447.921C329.213 443.544 321.601 441.355 312.086 441.355C302.57 441.355 294.863 443.544 288.964 447.921C283.064 452.108 278.782 457.722 276.118 464.763C273.454 471.804 272.121 479.322 272.121 487.314C272.121 495.498 273.454 503.015 276.118 509.866C278.782 516.717 283.064 522.236 288.964 526.423C294.863 530.419 302.57 532.417 312.086 532.417Z" fill="black"/>
<path d="M72.957 562.105V360.285H108.64V447.065H137.756L194.563 360.285H235.098L167.73 459.054L235.384 562.105H193.707L139.469 479.607H108.64V562.105H72.957Z" fill="black"/>
</svg>
    