<svg width="28" height="28" viewBox="0 0 28 28" fill="none" xmlns="http://www.w3.org/2000/svg">
                <mask id="mask0_9_3913" style="mask-type:alpha" maskUnits="userSpaceOnUse" x="0" y="0" width="28" height="28">
                <rect width="27.0565" height="27.0565" fill="white"/>
                </mask>
                <g mask="url(#mask0_9_3913)">
                <path d="M14.6554 23.6744V21.4197H16.9101V23.6744H14.6554ZM12.4007 21.4197V15.7829H14.6554V21.4197H12.4007ZM21.4195 18.0376V13.5282H23.6742V18.0376H21.4195ZM19.1648 13.5282V11.2735H21.4195V13.5282H19.1648ZM5.63654 15.7829V13.5282H7.89124V15.7829H5.63654ZM3.38184 13.5282V11.2735H5.63654V13.5282H3.38184ZM13.528 5.63675V3.38205H15.7827V5.63675H13.528ZM5.07286 8.45513H8.45492V5.07308H5.07286V8.45513ZM3.38184 10.1462V3.38205H10.1459V10.1462H3.38184ZM5.07286 21.9834H8.45492V18.6013H5.07286V21.9834ZM3.38184 23.6744V16.9103H10.1459V23.6744H3.38184ZM18.6011 8.45513H21.9831V5.07308H18.6011V8.45513ZM16.9101 10.1462V3.38205H23.6742V10.1462H16.9101ZM19.1648 23.6744V20.2923H16.9101V18.0376H21.4195V21.4197H23.6742V23.6744H19.1648ZM14.6554 15.7829V13.5282H19.1648V15.7829H14.6554ZM10.1459 15.7829V13.5282H7.89124V11.2735H14.6554V13.5282H12.4007V15.7829H10.1459ZM11.2733 10.1462V5.63675H13.528V7.89146H15.7827V10.1462H11.2733ZM5.91838 7.60962V5.91859H7.60941V7.60962H5.91838ZM5.91838 21.1378V19.4468H7.60941V21.1378H5.91838ZM19.4466 7.60962V5.91859H21.1376V7.60962H19.4466Z" fill="white"/>
                </g>
                </svg>