<svg width="1946" height="994" viewBox="0 0 1946 994" fill="none" xmlns="http://www.w3.org/2000/svg">
<g filter="url(#filter0_d_762_6435)">
<path d="M133.639 152L852.36 158.192V772.891H133.639V152Z" fill="#FFC48D"/>
<path d="M186.984 707.411L186.984 263.975C186.984 260.705 186.984 257.454 186.917 254.499C186.733 246.388 181.947 237.736 177.98 230.659L133.64 151.561L133.64 760.939C133.655 770.31 137.577 775.729 140.396 770.275C154.715 742.629 186.984 748.627 186.984 707.411Z" fill="#FFC48D"/>
<path d="M186.984 707.411L186.984 263.975C186.984 260.705 186.984 257.454 186.917 254.499C186.733 246.388 181.947 237.736 177.98 230.659L133.64 151.561L133.64 760.939C133.655 770.31 137.577 775.729 140.396 770.275C154.715 742.629 186.984 748.627 186.984 707.411Z" fill="black" fill-opacity="0.3"/>
<path d="M805.482 724.967C801.339 720.771 799.016 715.12 799.016 709.223C799.016 695.514 799.016 670.475 799.016 662.506V263.975C799.016 252.931 800.964 242.549 804.261 236.026L852.36 151.561V772.452L805.482 724.967Z" fill="#FFC48D"/>
<path d="M805.482 724.967C801.339 720.771 799.016 715.12 799.016 709.223C799.016 695.514 799.016 670.475 799.016 662.506V263.975C799.016 252.931 800.964 242.549 804.261 236.026L852.36 151.561V772.452L805.482 724.967Z" fill="black" fill-opacity="0.1"/>
<path d="M806.675 241.828C802.857 249.371 795.155 254.126 786.701 254.125C627.556 254.115 354.333 253.874 194.091 248.869C189.058 248.711 184.407 246.766 181.595 242.589C166.721 220.489 133.64 151.561 133.64 151.561H852.361L806.675 241.828Z" fill="#FFD0A5"/>
<path d="M806.675 241.828C802.857 249.371 795.155 254.126 786.701 254.125C627.556 254.115 354.333 253.874 194.091 248.869C189.058 248.711 184.407 246.766 181.595 242.589C166.721 220.489 133.64 151.561 133.64 151.561H852.361L806.675 241.828Z" fill="black" fill-opacity="0.3"/>
<path d="M799.71 90.1912C780.711 67.8646 752.871 55 723.555 55C572.376 55.0001 380.499 55 228.121 55C222.831 55 217.835 56.8903 214.188 60.7216C193.479 82.4765 133.64 152.061 133.64 152.061H852.361L799.71 90.1912Z" fill="#FFD0A5"/>
<path d="M799.71 90.1912C780.711 67.8646 752.871 55 723.555 55C572.376 55.0001 380.499 55 228.121 55C222.831 55 217.835 56.8903 214.188 60.7216C193.479 82.4765 133.64 152.061 133.64 152.061H852.361L799.71 90.1912Z" fill="#FFD0A5"/>
<path d="M179.71 713.397C183.912 707.447 190.742 703.909 198.026 703.909L789.251 703.909C795.976 703.909 802.346 706.927 806.605 712.131L856.376 772.952H137.654L179.71 713.397Z" fill="#FFC48D"/>
<path d="M179.71 713.397C183.912 707.447 190.742 703.909 198.026 703.909L789.251 703.909C795.976 703.909 802.346 706.927 806.605 712.131L856.376 772.952H137.654L179.71 713.397Z" fill="#BFBFBF" fill-opacity="0.2"/>
<path d="M185.331 821.731C203.891 839.244 228.42 849 253.939 849C402.991 849 579.7 849 733.485 849C738.775 849 743.861 847.206 748.151 844.112C773.021 826.17 852.36 772.952 852.36 772.952H133.639L185.331 821.731Z" fill="#FFD0A5"/>
<path d="M185.331 821.731C203.891 839.244 228.42 849 253.939 849C402.991 849 579.7 849 733.485 849C738.775 849 743.861 847.206 748.151 844.112C773.021 826.17 852.36 772.952 852.36 772.952H133.639L185.331 821.731Z" fill="#FFD0A5"/>
<path d="M185.331 821.731C203.891 839.244 228.42 849 253.939 849C402.991 849 579.7 849 733.485 849C738.775 849 743.861 847.206 748.151 844.112C773.021 826.17 852.36 772.952 852.36 772.952H133.639L185.331 821.731Z" fill="black" fill-opacity="0.2"/>
<path d="M903.699 707.908C906.485 704.379 908 700.051 908 695.555C908 562.129 908 380.524 908 239.118C908 235.245 906.997 231.519 904.881 228.276C892.597 209.439 852.361 151.561 852.361 151.561V772.952L903.699 707.908Z" fill="#FFD0A5"/>
<path d="M903.699 707.908C906.485 704.379 908 700.051 908 695.555C908 562.129 908 380.524 908 239.118C908 235.245 906.997 231.519 904.881 228.276C892.597 209.439 852.361 151.561 852.361 151.561V772.952L903.699 707.908Z" fill="#FFD0A5"/>
<path d="M903.699 707.908C906.485 704.379 908 700.051 908 695.555C908 562.129 908 380.524 908 239.118C908 235.245 906.997 231.519 904.881 228.276C892.597 209.439 852.361 151.561 852.361 151.561V772.952L903.699 707.908Z" fill="black" fill-opacity="0.2"/>
<path d="M99.5047 729.705C85.5758 712.058 78 690.262 78 667.78C78 537.689 78 370.937 78 239.118C78 235.245 79.0039 231.519 81.1262 228.28C93.4193 209.518 133.639 152.061 133.639 152.061L133.639 772.952L99.5047 729.705Z" fill="#FFD0A5"/>
<path d="M99.5047 729.705C85.5758 712.058 78 690.262 78 667.78C78 537.689 78 370.937 78 239.118C78 235.245 79.0039 231.519 81.1262 228.28C93.4193 209.518 133.639 152.061 133.639 152.061L133.639 772.952L99.5047 729.705Z" fill="#FFD0A5"/>
<rect x="187" y="489" width="612" height="11" fill="#626262" fill-opacity="0.5"/>
</g>
<path d="M1005.8 326V184.6H1121.4V326H1096.4V207.2H1030.8V326H1005.8ZM1197.27 327.4C1186.47 327.4 1177.13 325.2 1169.27 320.8C1161.53 316.4 1155.53 310.133 1151.27 302C1147.13 293.867 1145.07 284.333 1145.07 273.4C1145.07 262.333 1147.13 252.8 1151.27 244.8C1155.53 236.667 1161.53 230.333 1169.27 225.8C1177.13 221.267 1186.47 219 1197.27 219C1207.93 219 1217.13 221.267 1224.87 225.8C1232.6 230.333 1238.53 236.733 1242.67 245C1246.8 253.133 1248.87 262.733 1248.87 273.8C1248.87 284.6 1246.8 294.067 1242.67 302.2C1238.67 310.2 1232.8 316.4 1225.07 320.8C1217.33 325.2 1208.07 327.4 1197.27 327.4ZM1197.07 305.2C1203.73 305.2 1209.07 303.733 1213.07 300.8C1217.2 297.867 1220.2 294 1222.07 289.2C1223.93 284.4 1224.87 279.2 1224.87 273.6C1224.87 268 1223.93 262.733 1222.07 257.8C1220.2 252.867 1217.2 248.933 1213.07 246C1209.07 242.933 1203.73 241.4 1197.07 241.4C1190.4 241.4 1185 242.933 1180.87 246C1176.73 248.933 1173.73 252.867 1171.87 257.8C1170 262.733 1169.07 268 1169.07 273.6C1169.07 279.333 1170 284.6 1171.87 289.4C1173.73 294.2 1176.73 298.067 1180.87 301C1185 303.8 1190.4 305.2 1197.07 305.2ZM1314.8 327.4C1303.87 327.4 1294.67 325.2 1287.2 320.8C1279.73 316.267 1274.07 309.933 1270.2 301.8C1266.33 293.667 1264.4 284.267 1264.4 273.6C1264.4 262.933 1266.4 253.533 1270.4 245.4C1274.4 237.133 1280.27 230.667 1288 226C1295.73 221.333 1305.13 219 1316.2 219C1324.33 219 1331.53 220.4 1337.8 223.2C1344.2 226 1349.33 230.133 1353.2 235.6C1357.2 240.933 1359.73 247.6 1360.8 255.6H1336.8C1335.2 250.533 1332.53 246.867 1328.8 244.6C1325.2 242.2 1320.8 241 1315.6 241C1308.93 241 1303.6 242.667 1299.6 246C1295.73 249.2 1292.93 253.267 1291.2 258.2C1289.47 263.133 1288.6 268.267 1288.6 273.6C1288.6 279.2 1289.53 284.467 1291.4 289.4C1293.27 294.2 1296.13 298.067 1300 301C1304 303.933 1309.13 305.4 1315.4 305.4C1320.47 305.4 1325 304.267 1329 302C1333.13 299.733 1335.8 296.067 1337 291H1361.8C1360.87 299.133 1358.13 305.933 1353.6 311.4C1349.2 316.733 1343.6 320.733 1336.8 323.4C1330 326.067 1322.67 327.4 1314.8 327.4ZM1380.12 326V220.6H1404.72V256.6H1421.52C1427.52 256.6 1433.05 257.133 1438.12 258.2C1443.32 259.267 1447.79 261.067 1451.52 263.6C1455.25 266.133 1458.12 269.6 1460.12 274C1462.25 278.267 1463.32 283.667 1463.32 290.2C1463.32 296.733 1462.12 302.267 1459.72 306.8C1457.45 311.333 1454.32 315.067 1450.32 318C1446.32 320.8 1441.65 322.867 1436.32 324.2C1431.12 325.4 1425.59 326 1419.72 326H1380.12ZM1404.72 304.8H1411.92C1415.65 304.8 1419.12 304.667 1422.32 304.4C1425.65 304.133 1428.52 303.6 1430.92 302.8C1433.45 301.867 1435.45 300.467 1436.92 298.6C1438.39 296.733 1439.12 294.2 1439.12 291C1439.12 287.933 1438.52 285.533 1437.32 283.8C1436.12 281.933 1434.52 280.533 1432.52 279.6C1430.65 278.533 1428.52 277.867 1426.12 277.6C1423.72 277.333 1421.19 277.2 1418.52 277.2H1404.72V304.8ZM1476.72 326V220.6H1501.12V326H1476.72ZM1515.65 326.2V304.2C1518.58 304.2 1521.12 303.533 1523.25 302.2C1525.38 300.733 1527.18 298.8 1528.65 296.4C1530.38 293.467 1531.65 289.733 1532.45 285.2C1533.25 280.667 1533.78 276.067 1534.05 271.4C1534.45 265.4 1534.72 259.4 1534.85 253.4C1535.12 247.267 1535.32 241.4 1535.45 235.8C1535.72 230.067 1535.85 225 1535.85 220.6H1615.05V326H1590.65V242.2H1558.45C1558.32 246.6 1558.12 251.267 1557.85 256.2C1557.72 261.133 1557.52 266.133 1557.25 271.2C1556.98 276.133 1556.52 280.933 1555.85 285.6C1555.32 290.8 1554.38 296.067 1553.05 301.4C1551.85 306.733 1549.72 311.533 1546.65 315.8C1543.45 319.8 1539.45 322.533 1534.65 324C1529.98 325.467 1523.65 326.2 1515.65 326.2ZM1686.91 327.4C1676.11 327.4 1666.78 325.2 1658.91 320.8C1651.18 316.4 1645.18 310.133 1640.91 302C1636.78 293.867 1634.71 284.333 1634.71 273.4C1634.71 262.333 1636.78 252.8 1640.91 244.8C1645.18 236.667 1651.18 230.333 1658.91 225.8C1666.78 221.267 1676.11 219 1686.91 219C1697.58 219 1706.78 221.267 1714.51 225.8C1722.25 230.333 1728.18 236.733 1732.31 245C1736.45 253.133 1738.51 262.733 1738.51 273.8C1738.51 284.6 1736.45 294.067 1732.31 302.2C1728.31 310.2 1722.45 316.4 1714.71 320.8C1706.98 325.2 1697.71 327.4 1686.91 327.4ZM1686.71 305.2C1693.38 305.2 1698.71 303.733 1702.71 300.8C1706.85 297.867 1709.85 294 1711.71 289.2C1713.58 284.4 1714.51 279.2 1714.51 273.6C1714.51 268 1713.58 262.733 1711.71 257.8C1709.85 252.867 1706.85 248.933 1702.71 246C1698.71 242.933 1693.38 241.4 1686.71 241.4C1680.05 241.4 1674.65 242.933 1670.51 246C1666.38 248.933 1663.38 252.867 1661.51 257.8C1659.65 262.733 1658.71 268 1658.71 273.6C1658.71 279.333 1659.65 284.6 1661.51 289.4C1663.38 294.2 1666.38 298.067 1670.51 301C1674.65 303.8 1680.05 305.2 1686.71 305.2ZM1758.05 326V220.6H1782.45V262.8H1799.25L1826.65 220.6H1854.25L1820.45 270.4L1855.45 326H1827.25L1801.05 284.4H1782.45V326H1758.05ZM1001.8 506V400.6H1026.2V443H1070.2V400.6H1094.6V506H1070.2V464.8H1026.2V506H1001.8ZM1165.41 507.4C1154.47 507.4 1145.14 505.133 1137.41 500.6C1129.81 496.067 1124.01 489.8 1120.01 481.8C1116.14 473.667 1114.21 464.267 1114.21 453.6C1114.21 442.933 1116.21 433.533 1120.21 425.4C1124.34 417.133 1130.21 410.667 1137.81 406C1145.54 401.333 1154.81 399 1165.61 399C1173.34 399 1180.21 400.4 1186.21 403.2C1192.21 405.867 1197.27 409.667 1201.41 414.6C1205.54 419.4 1208.61 425 1210.61 431.4C1212.61 437.667 1213.54 444.4 1213.41 451.6C1213.41 453.2 1213.34 454.8 1213.21 456.4C1213.07 457.867 1212.87 459.467 1212.61 461.2H1138.61C1139.01 465.867 1140.21 470.133 1142.21 474C1144.34 477.867 1147.27 480.933 1151.01 483.2C1154.87 485.467 1159.67 486.6 1165.41 486.6C1168.74 486.6 1171.94 486.2 1175.01 485.4C1178.07 484.467 1180.74 483.133 1183.01 481.4C1185.41 479.667 1187.01 477.467 1187.81 474.8H1212.21C1210.47 482.4 1207.27 488.6 1202.61 493.4C1197.94 498.2 1192.34 501.733 1185.81 504C1179.41 506.267 1172.61 507.4 1165.41 507.4ZM1139.01 443H1189.81C1189.81 438.6 1188.81 434.6 1186.81 431C1184.81 427.4 1181.94 424.6 1178.21 422.6C1174.61 420.467 1170.21 419.4 1165.01 419.4C1159.41 419.4 1154.74 420.533 1151.01 422.8C1147.27 425.067 1144.41 428 1142.41 431.6C1140.41 435.2 1139.27 439 1139.01 443ZM1257.85 506V422.2H1223.05V400.6H1317.25V422.2H1282.25V506H1257.85Z" fill="black"/>
<path d="M1015.72 731.6C1010.07 731.6 1005.69 729.84 1002.6 726.32C999.613 722.8 998.12 718.533 998.12 713.52C998.12 705.413 1001 699.333 1006.76 695.28C1009.11 693.68 1011.67 692.507 1014.44 691.76C1017.21 690.907 1019.93 690.48 1022.6 690.48C1025.05 690.48 1027.72 690.853 1030.6 691.6C1036.36 669.307 1040.73 651.6 1043.72 638.48C1046.71 625.253 1049.96 609.947 1053.48 592.56L1055.72 581.68C1033.11 582.64 1016.52 590.16 1005.96 604.24C1002.87 608.507 1000.15 613.093 997.8 618C996.84 620.133 995.347 621.2 993.32 621.2C991.827 621.2 990.92 620.133 990.6 618C994.44 610 998.173 603.76 1001.8 599.28C1005.43 594.8 1009.27 591.013 1013.32 587.92C1024.31 579.707 1038.87 575.28 1057 574.64L1057.48 572.4C1057.69 571.44 1058.28 570.587 1059.24 569.84C1060.2 568.987 1061.05 568.56 1061.8 568.56C1063.29 568.56 1064.31 569.467 1064.84 571.28L1064.36 574.64C1080.25 575.067 1094.07 579.333 1105.8 587.44C1117.53 595.44 1126.28 605.573 1132.04 617.84C1137.48 629.36 1140.2 640.08 1140.2 650C1140.2 659.707 1138.71 669.787 1135.72 680.24C1132.73 690.587 1127.93 700.133 1121.32 708.88C1114.71 717.627 1106.39 724.027 1096.36 728.08C1090.81 730.32 1084.79 731.44 1078.28 731.44C1071.77 731.44 1064.52 727.28 1056.52 718.96C1050.33 712.56 1045.85 708.24 1043.08 706C1040.52 703.76 1037.85 701.947 1035.08 700.56L1032.2 713.84C1031.13 719.173 1029.91 722.853 1028.52 724.88C1027.13 727.013 1025.43 728.667 1023.4 729.84C1021.48 731.013 1018.92 731.6 1015.72 731.6ZM1081 724.08C1089.96 724.08 1098.44 720.4 1106.44 713.04C1114.44 705.68 1120.79 696.08 1125.48 684.24C1129.96 672.72 1132.2 661.147 1132.2 649.52C1132.2 637.787 1129.21 626.747 1123.24 616.4C1117.37 606.053 1109.21 597.84 1098.76 591.76C1088.52 585.68 1076.63 582.32 1063.08 581.68C1061.27 592.56 1057.21 610.587 1050.92 635.76C1046.12 654.427 1041.37 673.733 1036.68 693.68C1041.48 695.92 1046.87 699.813 1052.84 705.36L1055.24 707.6L1060.04 712.08C1063.67 715.707 1067.03 718.64 1070.12 720.88C1073.32 723.013 1076.95 724.08 1081 724.08ZM1014.76 723.6C1016.57 723.6 1018.39 723.013 1020.2 721.84C1022.12 720.667 1023.45 718.8 1024.2 716.24L1028.84 698.32C1026.92 698 1025.59 697.84 1024.84 697.84C1011.72 697.84 1005.16 702.747 1005.16 712.56C1005.16 717.36 1006.92 720.667 1010.44 722.48C1011.61 723.227 1013.05 723.6 1014.76 723.6ZM1161.27 731.44C1155.73 731.44 1151.57 729.253 1148.79 724.88C1146.13 720.507 1144.79 715.28 1144.79 709.2C1144.79 699.493 1146.39 690.107 1149.59 681.04C1152.9 671.867 1157.38 664.293 1163.03 658.32C1168.47 652.24 1174.61 649.2 1181.43 649.2C1191.25 649.2 1196.15 656.667 1196.15 671.6C1196.15 679.067 1194.93 686.693 1192.47 694.48C1190.02 702.267 1186.82 709.2 1182.87 715.28C1179.03 721.36 1175.03 725.733 1170.87 728.4C1167.67 730.427 1164.47 731.44 1161.27 731.44ZM1162.55 724.24C1165.86 724.24 1169.54 721.36 1173.59 715.6C1177.75 709.84 1181.22 702.693 1183.99 694.16C1186.87 685.627 1188.31 678.373 1188.31 672.4C1188.31 666.213 1187.94 662.373 1187.19 660.88C1186.55 659.28 1185.75 658.16 1184.79 657.52C1183.83 656.88 1182.34 656.56 1180.31 656.56C1178.07 656.56 1175.73 657.413 1173.27 659.12C1168.37 662.213 1164.1 667.547 1160.47 675.12C1154.82 686.427 1151.99 697.413 1151.99 708.08C1151.99 715.333 1154.07 720.347 1158.23 723.12C1159.73 723.867 1161.17 724.24 1162.55 724.24ZM1212.29 731.92C1202.48 731.92 1197.57 725.893 1197.57 713.84C1197.57 704.667 1198.53 695.867 1200.45 687.44C1202.48 678.907 1205.09 671.493 1208.29 665.2C1211.6 658.907 1215.17 654.373 1219.01 651.6C1222 649.467 1224.77 648.4 1227.33 648.4C1232.24 648.4 1235.7 649.413 1237.73 651.44C1236.56 647.707 1234.85 643.867 1232.61 639.92C1230.16 635.867 1228.13 632.187 1226.53 628.88C1221.62 619.813 1219.17 611.067 1219.17 602.64C1219.17 597.2 1220.24 592.4 1222.37 588.24C1224.61 583.973 1227.6 580.667 1231.33 578.32C1235.06 575.867 1239.28 574.64 1243.97 574.64C1248.24 574.64 1252.13 575.227 1255.65 576.4C1260.13 577.68 1263.44 578.533 1265.57 578.96C1267.81 579.387 1270.48 579.6 1273.57 579.6C1278.9 579.6 1283.12 579.013 1286.21 577.84C1286.21 577.84 1287.33 577.467 1289.57 576.72C1290.42 576.4 1291.49 576.24 1292.77 576.24C1294.69 576.24 1295.65 577.04 1295.65 578.64C1295.65 580.987 1293.68 582.96 1289.73 584.56C1285.78 586.16 1281.46 586.96 1276.77 586.96C1272.82 586.96 1269.78 586.8 1267.65 586.48C1265.52 586.053 1261.73 585.093 1256.29 583.6C1251.6 582.427 1246.69 581.84 1241.57 581.84C1236.77 581.84 1233.09 583.92 1230.53 588.08C1227.97 592.24 1226.69 597.147 1226.69 602.8C1226.69 607.92 1227.38 612.507 1228.77 616.56C1230.16 620.507 1232.93 626 1237.09 633.04C1243.92 644.347 1247.33 654.16 1247.33 662.48L1246.53 669.68V670C1246.53 678.32 1245.3 686.533 1242.85 694.64C1240.5 702.747 1237.41 709.84 1233.57 715.92C1229.84 722 1225.94 726.373 1221.89 729.04C1218.9 730.96 1215.7 731.92 1212.29 731.92ZM1212.13 724.08C1214.9 724.08 1217.46 723.173 1219.81 721.36C1222.16 719.44 1224.4 716.72 1226.53 713.2C1230.26 706.693 1233.3 698.96 1235.65 690C1238 681.467 1239.17 673.947 1239.17 667.44C1239.17 663.92 1238.26 661.253 1236.45 659.44C1234.64 657.627 1232.24 656.72 1229.25 656.72C1226.48 656.72 1224.13 657.52 1222.21 659.12C1220.4 660.72 1218.16 663.6 1215.49 667.76C1212.82 672.027 1210.32 678.267 1207.97 686.48C1205.73 694.587 1204.61 701.467 1204.61 707.12C1204.61 713.093 1205.14 717.413 1206.21 720.08C1207.28 722.747 1209.25 724.08 1212.13 724.08ZM1307.59 730.32C1305.14 730.32 1302.85 729.04 1300.71 726.48C1298.69 723.813 1297.67 720.987 1297.67 718C1297.67 711.387 1299.43 700.187 1302.95 684.4C1300.29 690.16 1296.82 696.08 1292.55 702.16C1288.39 708.133 1284.29 713.413 1280.23 718C1276.18 722.587 1273.19 725.573 1271.27 726.96C1268.61 728.987 1265.67 730 1262.47 730C1256.39 730 1253.35 726.16 1253.35 718.48C1253.35 711.013 1256.18 701.733 1261.83 690.64C1267.49 679.44 1274.21 669.733 1281.99 661.52C1289.78 653.413 1296.07 649.36 1300.87 649.36C1305.78 649.36 1308.55 651.493 1309.19 655.76C1309.51 657.04 1309.67 658.427 1309.67 659.92C1310.21 659.6 1310.79 659.44 1311.43 659.44C1313.89 659.44 1315.11 660.613 1315.11 662.96V663.6L1313.19 670.64C1311.7 675.973 1310.15 683.867 1308.55 694.32C1306.95 704.773 1306.15 713.467 1306.15 720.4L1307.75 721.36C1310.31 722.96 1311.59 724.56 1311.59 726.16C1311.59 727.227 1311.22 728.187 1310.47 729.04C1309.73 729.893 1308.77 730.32 1307.59 730.32ZM1263.75 721.68C1264.93 721.68 1265.89 721.307 1266.63 720.56C1277.51 711.28 1287.17 698.427 1295.59 682C1300.39 672.933 1303.01 667.547 1303.43 665.84C1303.65 663.92 1303.75 662.747 1303.75 662.32C1303.75 661.253 1303.49 660.293 1302.95 659.44C1302.42 658.587 1301.73 658.16 1300.87 658.16C1299.81 658.16 1298.42 658.64 1296.71 659.6C1292.45 661.84 1287.38 666.587 1281.51 673.84C1275.75 681.093 1271.01 688.773 1267.27 696.88C1263.33 705.093 1261.35 712.4 1261.35 718.8C1261.35 720.72 1262.15 721.68 1263.75 721.68ZM1333.23 731.6C1331.1 731.6 1329.07 730.48 1327.15 728.24C1325.34 726 1323.84 723.013 1322.67 719.28C1321.6 715.547 1321.07 711.6 1321.07 707.44C1321.07 702.32 1321.28 697.093 1321.71 691.76C1320.11 691.547 1319.31 690.64 1319.31 689.04C1319.31 688.72 1319.42 688.133 1319.63 687.28L1322.83 681.68C1325.18 665.04 1329.87 643.227 1336.91 616.24C1341.92 598.107 1347.84 585.52 1354.67 578.48C1356.91 576.133 1359.04 574.96 1361.07 574.96C1368.43 574.96 1372.11 579.44 1372.11 588.4C1372.11 599.6 1367.15 612.4 1357.23 626.8C1354.46 630.96 1350.62 636.56 1345.71 643.6C1340.59 650.853 1336.7 657.467 1334.03 663.44C1333.5 664.613 1332.75 665.413 1331.79 665.84L1331.31 668.88C1341.66 655.653 1350.99 649.04 1359.31 649.04C1362.62 649.04 1364.96 650.8 1366.35 654.32C1367.74 657.733 1368.43 661.733 1368.43 666.32C1368.43 673.787 1366.78 682.747 1363.47 693.2C1360.27 703.547 1356.32 712.133 1351.63 718.96C1345.66 727.387 1339.52 731.6 1333.23 731.6ZM1340.91 639.76C1343.9 635.28 1345.92 632.187 1346.99 630.48L1349.71 626.48C1359.42 611.333 1364.27 599.653 1364.27 591.44C1364.27 588.773 1364.11 586.8 1363.79 585.52C1363.47 584.133 1362.67 583.44 1361.39 583.44C1359.04 583.44 1356.27 586.64 1353.07 593.04C1346.78 605.52 1340.8 624.133 1335.15 648.88L1340.91 639.76ZM1334.83 723.76C1338.78 723.76 1342.72 720.453 1346.67 713.84C1350.72 707.227 1354.14 698.96 1356.91 689.04C1359.47 679.547 1360.75 672.613 1360.75 668.24C1360.75 663.547 1360.48 660.72 1359.95 659.76C1359.42 658.587 1358.08 658 1355.95 658C1352.11 658 1348 660.24 1343.63 664.72C1339.36 669.093 1334.56 675.6 1329.23 684.24C1328.59 690.32 1328.27 695.973 1328.27 701.2C1328.27 716.24 1330.46 723.76 1334.83 723.76ZM1379.26 658.32C1377.98 658.32 1376.86 657.947 1375.9 657.2C1375.05 656.453 1374.62 655.653 1374.62 654.8C1374.62 654.053 1375 653.413 1375.74 652.88C1384.7 649.04 1395.9 647.12 1409.34 647.12C1415.1 647.12 1419.85 647.333 1423.58 647.76C1427.21 648.293 1430.36 648.667 1433.02 648.88C1435.26 649.2 1436.6 649.573 1437.02 650C1437.45 650.533 1437.66 651.28 1437.66 652.24C1437.66 653.2 1437.13 654.16 1436.06 655.12C1435 655.973 1433.66 656.4 1432.06 656.4C1430.25 656.4 1427.21 655.92 1422.94 654.96C1418.46 654.107 1414.2 653.68 1410.14 653.68C1399.26 653.68 1389.4 655.173 1380.54 658.16L1379.9 658.32H1379.26ZM1387.58 732.4C1385.77 732.4 1384.86 731.333 1384.86 729.2C1384.86 728.133 1385.24 727.12 1385.98 726.16C1386.94 723.6 1387.9 720.133 1388.86 715.76C1390.14 710.32 1391 706.96 1391.42 705.68L1393.02 697.52L1394.78 687.28C1396.6 676.827 1398.3 669.307 1399.9 664.72C1401.61 660.133 1403.9 657.84 1406.78 657.84C1407.85 657.84 1408.7 658.533 1409.34 659.92L1411.42 665.36C1411.42 667.6 1410.62 669.307 1409.02 670.48C1408.6 670.8 1408.06 670.96 1407.42 670.96C1406.78 670.96 1406.2 670.64 1405.66 670C1403.21 679.067 1401.72 685.68 1401.18 689.84C1400.12 696.773 1399.21 702.107 1398.46 705.84C1398.04 707.013 1397.56 708.72 1397.02 710.96L1395.58 716.24C1392.81 727.013 1390.14 732.4 1387.58 732.4ZM1439.05 731.6C1435.64 731.6 1432.97 731.067 1431.05 730C1429.13 728.827 1427.59 727.067 1426.41 724.72C1424.17 720.56 1423.05 715.547 1423.05 709.68C1423.05 699.44 1424.6 689.733 1427.69 680.56C1430.79 671.28 1435 663.493 1440.33 657.2C1445.45 651.227 1451.05 648.24 1457.13 648.24C1460.33 648.24 1462.84 649.573 1464.65 652.24C1466.57 654.8 1467.53 657.947 1467.53 661.68C1467.53 668.187 1465.83 673.84 1462.41 678.64C1459.11 683.44 1454.63 687.44 1448.97 690.64C1444.07 693.52 1438.09 696.4 1431.05 699.28L1430.73 710.8C1430.73 719.76 1433.45 724.24 1438.89 724.24C1441.35 724.24 1443.91 723.653 1446.57 722.48C1449.24 721.2 1452.01 719.707 1454.89 718C1456.28 717.253 1457.4 716.88 1458.25 716.88C1460.07 716.88 1460.97 717.84 1460.97 719.76C1460.97 721.147 1459.64 722.8 1456.97 724.72C1454.41 726.64 1451.37 728.293 1447.85 729.68C1444.33 730.96 1441.4 731.6 1439.05 731.6ZM1432.33 691.6C1433.29 691.067 1435.43 689.947 1438.73 688.24C1440.23 687.6 1442.36 686.533 1445.13 685.04C1450.15 682.267 1453.88 679.067 1456.33 675.44C1458.89 671.813 1460.17 667.333 1460.17 662C1460.17 657.84 1458.41 655.76 1454.89 655.76C1451.8 655.76 1448.17 658.587 1444.01 664.24C1439.64 669.893 1436.12 677.307 1433.45 686.48C1432.71 689.04 1432.33 690.747 1432.33 691.6ZM1548.65 731.76C1545.67 731.76 1543.37 730.96 1541.77 729.36C1540.28 727.76 1539.53 725.68 1539.53 723.12C1539.53 720.453 1540.23 715.867 1541.61 709.36L1545.29 690C1537.51 695.867 1530.31 698.8 1523.69 698.8C1518.89 698.8 1515.21 697.52 1512.65 694.96C1512.44 696.027 1512.23 697.093 1512.01 698.16C1511.91 699.227 1511.75 700.293 1511.53 701.36C1511.11 704.88 1510.57 708.453 1509.93 712.08C1508.01 724.773 1505.13 731.12 1501.29 731.12C1499.69 731.12 1498.73 730 1498.41 727.76C1499.37 719.44 1501.72 706.533 1505.45 689.04C1509.29 671.44 1512.01 659.547 1513.61 653.36C1513.93 652.293 1514.52 651.387 1515.37 650.64C1516.33 649.893 1517.29 649.52 1518.25 649.52C1519.53 649.52 1520.44 650.427 1520.97 652.24C1520.97 653.947 1520.01 659.493 1518.09 668.88C1516.6 676.027 1515.43 682.16 1514.57 687.28C1516.92 689.947 1520.6 691.28 1525.61 691.28C1530.52 691.28 1535.91 688.827 1541.77 683.92C1543.59 682.32 1545.29 680.613 1546.89 678.8L1549.29 668.08C1551.11 660.293 1553.08 654.907 1555.21 651.92C1556.28 650.213 1557.72 649.36 1559.53 649.36C1561.35 649.36 1562.25 650.373 1562.25 652.4V653.2C1556.39 673.36 1552.71 687.973 1551.21 697.04C1549.83 704.827 1548.92 710.96 1548.49 715.44C1548.17 718.96 1547.96 720.88 1547.85 721.2L1547.69 723.28C1547.69 723.92 1547.96 724.24 1548.49 724.24C1548.92 724.24 1549.29 724.08 1549.61 723.76C1550.15 723.44 1551 723.28 1552.17 723.28C1553.99 723.28 1554.89 724.24 1554.89 726.16C1554.89 729.893 1552.81 731.76 1548.65 731.76ZM1580.1 731.44C1574.55 731.44 1570.39 729.253 1567.62 724.88C1564.95 720.507 1563.62 715.28 1563.62 709.2C1563.62 699.493 1565.22 690.107 1568.42 681.04C1571.73 671.867 1576.21 664.293 1581.86 658.32C1587.3 652.24 1593.43 649.2 1600.26 649.2C1610.07 649.2 1614.98 656.667 1614.98 671.6C1614.98 679.067 1613.75 686.693 1611.3 694.48C1608.85 702.267 1605.65 709.2 1601.7 715.28C1597.86 721.36 1593.86 725.733 1589.7 728.4C1586.5 730.427 1583.3 731.44 1580.1 731.44ZM1581.38 724.24C1584.69 724.24 1588.37 721.36 1592.42 715.6C1596.58 709.84 1600.05 702.693 1602.82 694.16C1605.7 685.627 1607.14 678.373 1607.14 672.4C1607.14 666.213 1606.77 662.373 1606.02 660.88C1605.38 659.28 1604.58 658.16 1603.62 657.52C1602.66 656.88 1601.17 656.56 1599.14 656.56C1596.9 656.56 1594.55 657.413 1592.1 659.12C1587.19 662.213 1582.93 667.547 1579.3 675.12C1573.65 686.427 1570.82 697.413 1570.82 708.08C1570.82 715.333 1572.9 720.347 1577.06 723.12C1578.55 723.867 1579.99 724.24 1581.38 724.24ZM1630.32 731.6C1628.18 731.6 1626.16 730.48 1624.24 728.24C1622.42 726 1620.93 723.013 1619.76 719.28C1618.69 715.547 1618.16 711.6 1618.16 707.44C1618.16 702.32 1618.37 697.093 1618.8 691.76C1617.2 691.547 1616.4 690.64 1616.4 689.04C1616.4 688.72 1616.5 688.133 1616.72 687.28L1619.92 681.68C1622.26 665.04 1626.96 643.227 1634 616.24C1639.01 598.107 1644.93 585.52 1651.76 578.48C1654 576.133 1656.13 574.96 1658.16 574.96C1665.52 574.96 1669.2 579.44 1669.2 588.4C1669.2 599.6 1664.24 612.4 1654.32 626.8C1651.54 630.96 1647.7 636.56 1642.8 643.6C1637.68 650.853 1633.78 657.467 1631.12 663.44C1630.58 664.613 1629.84 665.413 1628.88 665.84L1628.4 668.88C1638.74 655.653 1648.08 649.04 1656.4 649.04C1659.7 649.04 1662.05 650.8 1663.44 654.32C1664.82 657.733 1665.52 661.733 1665.52 666.32C1665.52 673.787 1663.86 682.747 1660.56 693.2C1657.36 703.547 1653.41 712.133 1648.72 718.96C1642.74 727.387 1636.61 731.6 1630.32 731.6ZM1638 639.76C1640.98 635.28 1643.01 632.187 1644.08 630.48L1646.8 626.48C1656.5 611.333 1661.36 599.653 1661.36 591.44C1661.36 588.773 1661.2 586.8 1660.88 585.52C1660.56 584.133 1659.76 583.44 1658.48 583.44C1656.13 583.44 1653.36 586.64 1650.16 593.04C1643.86 605.52 1637.89 624.133 1632.24 648.88L1638 639.76ZM1631.92 723.76C1635.86 723.76 1639.81 720.453 1643.76 713.84C1647.81 707.227 1651.22 698.96 1654 689.04C1656.56 679.547 1657.84 672.613 1657.84 668.24C1657.84 663.547 1657.57 660.72 1657.04 659.76C1656.5 658.587 1655.17 658 1653.04 658C1649.2 658 1645.09 660.24 1640.72 664.72C1636.45 669.093 1631.65 675.6 1626.32 684.24C1625.68 690.32 1625.36 695.973 1625.36 701.2C1625.36 716.24 1627.54 723.76 1631.92 723.76ZM1681.47 796.72C1677.95 796.72 1674.86 795.813 1672.19 794C1669.63 792.187 1667.66 789.893 1666.27 787.12C1664.88 784.453 1664.19 781.787 1664.19 779.12C1664.19 772.827 1665.84 766.907 1669.15 761.36C1672.46 755.92 1677.2 750.587 1683.39 745.36C1685.74 743.227 1691.12 739.013 1699.55 732.72L1707.39 726.8L1708.19 723.12L1709.31 718.16C1709.84 715.6 1710.22 713.893 1710.43 713.04L1711.39 708.72C1709.47 714.587 1706.27 719.813 1701.79 724.4C1697.42 728.987 1693.2 731.28 1689.15 731.28C1684.88 731.28 1681.47 729.68 1678.91 726.48C1676.35 723.173 1675.07 718.693 1675.07 713.04C1675.07 704.08 1677.63 689.947 1682.75 670.64C1685.31 661.04 1686.59 655.867 1686.59 655.12L1686.27 653.2C1686.16 652.453 1686.86 651.547 1688.35 650.48C1689.84 649.413 1691.07 648.88 1692.03 648.88C1694.16 648.88 1695.23 649.947 1695.23 652.08C1695.23 654.213 1693.26 663.173 1689.31 678.96C1685.36 694.747 1683.39 705.467 1683.39 711.12C1683.39 716.667 1684.08 720.133 1685.47 721.52C1686.75 722.907 1688.35 723.6 1690.27 723.6C1694.32 723.6 1698.64 720.187 1703.23 713.36C1706.86 708.027 1710.06 700.88 1712.83 691.92C1715.71 682.853 1718.38 673.307 1720.83 663.28L1721.63 660.08C1722.8 655.28 1723.82 652.293 1724.67 651.12C1725.52 649.84 1726.7 649.2 1728.19 649.2C1729.36 649.2 1730.16 649.52 1730.59 650.16C1731.12 650.693 1731.28 651.28 1731.07 651.92C1729.47 659.813 1726.86 671.387 1723.23 686.64C1719.92 700.507 1717.58 711.653 1716.19 720.08C1715.87 720.293 1717.74 718.587 1721.79 714.96C1723.92 712.827 1725.52 711.333 1726.59 710.48C1727.66 709.627 1728.67 709.2 1729.63 709.2C1731.44 709.2 1732.35 710.107 1732.35 711.92C1732.35 713.2 1731.92 714.267 1731.07 715.12C1726.8 718.96 1721.26 723.547 1714.43 728.88C1709.1 756.827 1704.3 775.013 1700.03 783.44C1697.68 788.133 1694.22 791.867 1689.63 794.64C1687.28 796.027 1684.56 796.72 1681.47 796.72ZM1681.47 789.04C1685.2 789.04 1688.56 786.64 1691.55 781.84C1693.58 778.64 1695.76 773.52 1698.11 766.48L1700.19 758.64L1701.79 752.4L1705.47 736.08L1702.75 738.48C1699.02 741.68 1695.34 744.72 1691.71 747.6C1678.8 758.053 1672.35 768.027 1672.35 777.52C1672.35 781.893 1673.79 785.253 1676.67 787.6C1677.74 788.56 1679.34 789.04 1681.47 789.04ZM1736.02 731.92C1734.1 731.92 1733.14 731.013 1733.14 729.2C1733.14 728.453 1733.51 726.907 1734.26 724.56C1735.86 719.44 1737.83 711.227 1740.18 699.92L1742.74 685.52L1744.82 673.84C1745.35 671.28 1745.88 667.387 1746.42 662.16C1747.38 652.133 1749.72 647.12 1753.46 647.12C1755.59 647.12 1756.66 648.667 1756.66 651.76C1756.44 652.613 1756.07 653.413 1755.54 654.16C1754.26 660.667 1753.51 664.88 1753.3 666.8C1752.76 670 1751.96 673.573 1750.9 677.52C1750.04 680.72 1749.35 683.707 1748.82 686.48C1752.34 685.2 1756.5 684.56 1761.3 684.56L1771.54 684.88C1773.99 676.453 1778.47 667.547 1784.98 658.16C1789.03 652.507 1795.54 649.68 1804.5 649.68C1807.38 649.68 1809.99 650.533 1812.34 652.24C1814.68 653.947 1816.07 656.293 1816.5 659.28C1817.14 660.133 1817.56 660.88 1817.78 661.52C1817.46 673.68 1816.34 683.6 1814.42 691.28C1812.5 698.853 1809.99 705.68 1806.9 711.76C1801.46 721.787 1795 727.813 1787.54 729.84C1784.02 730.8 1781.3 731.28 1779.38 731.28C1775.75 731.28 1772.92 729.307 1770.9 725.36C1768.98 721.413 1768.02 716.293 1768.02 710C1768.02 704.453 1768.6 698.48 1769.78 692.08L1761.78 691.92C1759.11 691.92 1756.34 692.187 1753.46 692.72C1750.79 693.36 1749.35 693.947 1749.14 694.48C1748.71 695.12 1748.02 695.653 1747.06 696.08C1746.63 698.533 1746.36 700.24 1746.26 701.2C1745.19 707.387 1744.18 712.613 1743.22 716.88C1742.36 721.04 1741.19 725.413 1739.7 730C1738.74 731.28 1737.51 731.92 1736.02 731.92ZM1782.74 724.72C1785.94 724.72 1789.78 722.533 1794.26 718.16C1798.74 713.68 1801.94 708.987 1803.86 704.08C1805.88 698.853 1807.38 693.52 1808.34 688.08C1809.3 682.533 1809.99 674.693 1810.42 664.56C1810.1 664.24 1809.72 663.653 1809.3 662.8C1809.19 658.96 1807.22 657.04 1803.38 657.04C1796.98 657.04 1791.64 659.76 1787.38 665.2C1783.22 670.64 1780.12 677.787 1778.1 686.64C1776.28 695.067 1775.38 702.64 1775.38 709.36C1775.38 719.6 1777.83 724.72 1782.74 724.72Z" fill="#4C80CE"/>
<defs>
<filter id="filter0_d_762_6435" x="0" y="0" width="1030" height="994" filterUnits="userSpaceOnUse" color-interpolation-filters="sRGB">
<feFlood flood-opacity="0" result="BackgroundImageFix"/>
<feColorMatrix in="SourceAlpha" type="matrix" values="0 0 0 0 0 0 0 0 0 0 0 0 0 0 0 0 0 0 127 0" result="hardAlpha"/>
<feOffset dx="22" dy="45"/>
<feGaussianBlur stdDeviation="50"/>
<feComposite in2="hardAlpha" operator="out"/>
<feColorMatrix type="matrix" values="0 0 0 0 0 0 0 0 0 0 0 0 0 0 0 0 0 0 0.1 0"/>
<feBlend mode="normal" in2="BackgroundImageFix" result="effect1_dropShadow_762_6435"/>
<feBlend mode="normal" in="SourceGraphic" in2="effect1_dropShadow_762_6435" result="shape"/>
</filter>
</defs>
</svg>
